<?xml version="1.0" standalone="no"?>
<!DOCTYPE svg PUBLIC "-//W3C//DTD SVG 20010904//EN"
 "http://www.w3.org/TR/2001/REC-SVG-20010904/DTD/svg10.dtd">
<svg version="1.0" xmlns="http://www.w3.org/2000/svg"
 width="993.000000pt" height="315.000000pt" viewBox="0 0 993.000000 315.000000"
 preserveAspectRatio="xMidYMid meet">
<g transform="translate(0.000000,315.000000) scale(0.100000,-0.100000)"
fill="#000000" stroke="none">
<path d="M4497 2803 c-3 -5 -8 -36 -12 -71 -4 -34 -11 -65 -16 -68 -5 -3 -9
-18 -9 -33 0 -15 -7 -36 -15 -47 -8 -10 -15 -29 -15 -40 0 -12 -7 -27 -15 -34
-8 -7 -15 -20 -15 -30 0 -10 -7 -23 -15 -30 -8 -7 -15 -21 -15 -31 0 -10 -5
-21 -11 -24 -5 -4 -15 -17 -20 -28 -34 -75 -177 -260 -277 -358 -141 -139
-254 -221 -417 -302 -118 -58 -174 -78 -300 -107 -61 -14 -73 -24 -55 -46 12
-13 25 -15 80 -8 36 4 394 7 795 6 627 -1 792 2 980 20 25 2 31 -1 33 -20 2
-14 -3 -24 -15 -28 -50 -15 -144 -72 -208 -124 -89 -74 -303 -301 -314 -333
-2 -7 -14 -25 -26 -42 -13 -16 -26 -41 -30 -54 -9 -29 -36 -61 -51 -61 -18 0
-22 21 -14 80 4 30 9 141 11 245 l4 190 -52 3 -52 3 -4 -483 c-2 -266 -8 -496
-12 -511 -7 -27 -6 -28 21 -25 31 3 29 -2 54 132 5 27 14 54 20 60 5 5 10 19
10 31 0 12 7 30 15 41 8 10 15 26 15 35 0 9 7 22 15 29 8 7 15 20 15 30 0 10
7 23 15 30 8 7 15 19 15 26 0 7 24 48 53 89 28 42 57 84 62 93 22 37 160 189
219 241 23 20 46 41 51 47 14 16 167 129 185 137 8 4 29 16 45 27 29 18 147
77 210 104 62 27 131 46 165 46 39 0 80 23 80 45 0 18 -44 30 -62 18 -7 -4
-407 -11 -888 -14 -481 -4 -890 -10 -907 -14 -31 -7 -33 -6 -33 19 0 17 7 29
18 32 100 30 339 227 442 364 19 25 45 56 58 71 26 28 41 53 73 122 18 37 28
47 47 47 19 0 23 -3 16 -17 -4 -10 -10 -125 -12 -256 l-4 -238 52 3 52 3 3
440 c1 242 6 470 10 508 l7 67 -25 0 c-14 0 -28 -3 -30 -7z"/>
<path d="M5207 2543 c-2 -5 -10 -27 -17 -51 -20 -63 -99 -132 -151 -132 -37 0
-39 -2 -39 -30 0 -27 3 -30 33 -30 21 0 49 -11 73 -28 53 -39 66 -57 85 -115
19 -60 34 -69 50 -30 47 119 88 163 163 172 36 5 41 9 41 31 0 22 -5 25 -41
28 -70 5 -139 77 -158 165 -6 25 -30 37 -39 20z"/>
<path d="M182 2331 c-8 -5 -18 -233 -13 -298 1 -8 14 -13 31 -13 33 0 33 1 30
78 l-2 53 64 -3 63 -3 0 -60 0 -60 34 0 33 0 0 140 c0 77 -1 146 -1 153 -1 9
-12 12 -33 10 -33 -3 -33 -3 -33 -58 l0 -55 -63 -3 -64 -3 2 48 c1 26 1 53 1
59 -1 14 -35 24 -49 15z"/>
<path d="M6896 2333 c-3 -4 -6 -15 -6 -26 0 -10 -6 -31 -13 -45 -8 -15 -22
-45 -32 -67 -9 -22 -21 -47 -26 -55 -5 -8 -12 -22 -15 -30 -3 -8 -12 -28 -20
-43 -16 -33 -11 -47 17 -47 33 0 59 19 59 43 0 12 7 31 15 41 8 11 15 32 15
48 0 21 5 28 20 28 21 0 40 -27 40 -56 0 -10 9 -37 21 -61 16 -33 26 -43 45
-43 35 0 39 22 13 77 -12 26 -29 64 -37 83 -8 19 -20 44 -25 55 -6 11 -13 35
-16 54 -6 32 -40 59 -55 44z"/>
<path d="M8470 2333 c-15 -4 -69 -73 -82 -105 -8 -19 -43 -25 -52 -9 -4 5 -1
22 4 37 17 44 5 74 -29 74 -16 0 -31 -6 -33 -12 -2 -7 -3 -76 -3 -153 l1 -140
32 -3 c41 -4 50 15 33 76 -22 85 17 80 74 -9 31 -46 47 -61 74 -69 48 -13 51
-13 51 8 0 9 -27 44 -60 77 -33 33 -60 67 -60 76 0 9 23 37 50 63 51 48 63 79
34 90 -9 3 -16 5 -17 5 -1 -1 -9 -3 -17 -6z"/>
<path d="M528 2318 c-2 -7 -3 -76 -3 -153 l0 -140 103 -3 c88 -2 103 0 109 14
13 34 -11 49 -75 49 -66 0 -88 12 -77 43 5 17 16 22 53 24 43 3 47 5 47 28 0
22 -5 25 -45 28 -55 4 -66 13 -50 42 11 20 17 22 64 16 66 -7 95 9 77 42 -11
20 -19 22 -105 22 -67 0 -95 -4 -98 -12z"/>
<path d="M815 2320 c-11 -18 -3 -285 9 -292 6 -4 50 -8 98 -8 91 0 98 4 90 47
-4 20 -11 22 -66 25 l-61 3 4 118 3 117 -35 0 c-20 0 -39 -4 -42 -10z"/>
<path d="M1080 2310 c-6 -11 -9 -28 -6 -38 3 -9 6 -64 7 -122 1 -58 6 -111 12
-117 13 -18 184 -18 189 -1 3 7 2 22 0 35 -4 20 -11 22 -66 25 l-61 3 0 115 0
115 -32 3 c-24 2 -34 -2 -43 -18z"/>
<path d="M1363 2318 c-11 -15 -11 -268 1 -286 5 -8 38 -12 102 -12 78 0 96 3
101 16 13 34 -11 49 -76 50 -66 1 -85 11 -79 40 2 15 14 20 56 22 50 3 52 4
52 33 0 28 -1 29 -50 29 -55 0 -73 17 -49 46 10 12 28 15 73 12 l61 -3 0 30 0
30 -91 3 c-65 2 -94 -1 -101 -10z"/>
<path d="M1645 2178 l0 -153 25 -3 c48 -5 55 9 42 83 -7 36 -10 70 -7 75 8 14
44 -3 58 -27 7 -11 32 -45 56 -74 45 -56 79 -78 86 -56 2 6 3 77 2 157 l-2
145 -27 3 c-39 5 -50 -23 -38 -89 13 -68 13 -79 -4 -79 -14 0 -113 107 -134
146 -7 14 -22 24 -35 24 -22 0 -22 -2 -22 -152z"/>
<path d="M2000 2175 l0 -156 33 3 32 3 0 150 0 150 -32 3 -33 3 0 -156z"/>
<path d="M2200 2280 c-47 -46 -50 -52 -50 -100 0 -108 102 -190 198 -159 79
25 113 69 77 99 -12 10 -21 10 -40 2 -14 -7 -25 -16 -25 -21 0 -13 -48 -23
-81 -16 -31 7 -69 58 -69 93 0 30 62 92 92 92 13 0 39 -11 58 -25 40 -30 52
-31 73 -7 14 16 14 19 -1 38 -31 38 -69 54 -127 54 -54 0 -58 -2 -105 -50z"/>
<path d="M6528 2313 c-3 -10 -4 -79 -4 -153 l1 -135 103 -3 c88 -2 103 0 109
14 13 34 -11 49 -78 49 l-64 0 -3 32 c-3 31 -3 32 45 35 44 3 48 5 48 28 0 22
-5 25 -45 28 -55 4 -66 13 -50 42 11 20 17 22 65 16 62 -7 85 -1 85 23 0 33
-22 41 -116 41 -80 0 -93 -2 -96 -17z"/>
<path d="M7187 2303 c-7 -40 -32 -102 -45 -115 -7 -7 -12 -21 -12 -33 0 -12
-5 -26 -12 -33 -15 -15 -38 -83 -32 -94 6 -9 36 -11 58 -2 9 3 16 16 16 28 0
12 6 31 14 42 8 11 16 33 18 49 6 56 57 42 58 -15 0 -14 7 -34 15 -44 8 -11
15 -27 15 -37 0 -18 19 -29 50 -29 31 0 32 17 6 71 -15 28 -26 56 -26 64 0 7
-7 18 -15 25 -8 7 -15 22 -15 34 0 11 -7 30 -15 40 -8 11 -15 32 -15 48 0 24
-4 28 -29 28 -23 0 -30 -5 -34 -27z"/>
<path d="M7408 2323 c-1 -5 -2 -72 -3 -151 -1 -142 -1 -143 23 -149 38 -9 57
17 45 64 -15 58 -10 63 64 63 l65 0 -4 -62 -3 -63 35 0 35 0 0 150 0 150 -32
3 c-36 4 -36 3 -37 -68 l-1 -45 -60 0 -60 0 -1 40 c-2 74 -2 75 -34 75 -16 0
-31 -3 -32 -7z"/>
<path d="M7755 2178 l0 -153 34 -3 34 -3 -6 80 c-5 83 4 110 28 77 58 -78 142
-169 152 -163 5 3 8 74 8 159 l0 153 -34 3 -33 3 3 -82 c3 -52 0 -84 -7 -86
-5 -2 -35 27 -65 64 -115 143 -115 143 -114 -49z"/>
<path d="M8119 2320 c0 -5 -1 -74 -2 -152 l-1 -143 29 -3 c15 -2 31 1 34 6 3
6 5 76 3 156 l-3 146 -30 0 c-16 0 -29 -4 -30 -10z"/>
<path d="M8630 2312 c-37 -25 -57 -52 -76 -99 -19 -49 -12 -75 36 -142 48 -65
146 -74 219 -21 17 13 31 29 31 36 0 6 7 17 15 24 22 18 19 92 -6 134 -34 59
-80 86 -141 85 -33 0 -63 -7 -78 -17z m133 -68 c46 -43 52 -71 23 -115 -45
-67 -132 -63 -161 7 -18 43 -14 62 22 104 32 39 77 40 116 4z"/>
<path d="M1040 1772 c-34 -23 -59 -54 -60 -73 0 -23 57 -77 107 -99 36 -16 44
-24 41 -42 -4 -32 -43 -35 -80 -8 -25 18 -34 20 -54 11 -28 -12 -30 -24 -8
-46 20 -20 89 -55 108 -55 22 0 85 40 96 60 28 52 0 98 -82 138 -32 16 -48 30
-48 42 0 26 37 36 59 16 10 -9 30 -16 44 -16 42 0 37 42 -9 69 -42 25 -80 26
-114 3z"/>
<path d="M1640 1769 c0 -12 -7 -37 -16 -57 -8 -21 -21 -50 -28 -67 -32 -74
-58 -125 -67 -130 -12 -8 -12 -42 1 -50 12 -7 72 23 83 41 5 9 26 14 54 14 36
0 51 -5 69 -25 22 -24 74 -35 74 -16 0 9 -23 63 -39 91 -4 8 -16 33 -25 55
-10 22 -24 53 -32 68 -8 16 -14 39 -14 51 0 27 -18 46 -42 46 -12 0 -18 -7
-18 -21z m48 -141 c11 -11 17 -58 8 -58 -2 0 -11 -3 -19 -6 -22 -8 -45 21 -40
50 6 28 31 34 51 14z"/>
<path d="M1935 1762 c-44 -31 -85 -94 -85 -132 0 -54 50 -125 109 -153 44 -22
69 -21 117 3 73 37 90 60 62 88 -18 18 -36 15 -72 -13 -18 -14 -40 -25 -49
-25 -32 0 -68 24 -83 57 -43 90 67 176 140 108 32 -30 38 -31 59 -7 25 27 22
34 -32 70 -64 41 -110 42 -166 4z"/>
<path d="M2320 1783 c-41 -2 -77 -9 -81 -15 -12 -19 -9 -277 3 -284 7 -4 51
-9 99 -11 69 -2 91 0 103 13 13 12 14 20 5 36 -10 18 -18 20 -75 15 -71 -5
-89 7 -77 52 5 18 12 22 42 21 56 -3 61 -1 61 19 0 28 -22 41 -62 35 -38 -7
-54 10 -41 42 5 13 17 16 63 11 59 -5 90 4 90 28 0 13 -39 47 -50 43 -3 -1
-39 -4 -80 -5z"/>
<path d="M6527 1773 c-3 -10 -4 -81 -3 -158 l1 -140 30 0 30 0 0 65 c1 78 19
91 50 34 30 -57 93 -116 118 -112 40 6 30 35 -32 100 -34 35 -61 67 -61 71 0
5 25 34 55 66 63 66 70 91 25 91 -34 0 -52 -16 -99 -83 -46 -67 -56 -63 -51
16 1 21 -4 44 -10 52 -17 20 -48 19 -53 -2z"/>
<path d="M6928 1781 c-42 -3 -80 -9 -84 -14 -7 -7 -10 -275 -3 -282 2 -2 47
-6 101 -10 89 -6 97 -5 107 13 7 14 7 24 -3 37 -11 15 -22 17 -63 12 -60 -7
-87 7 -81 44 3 22 8 24 53 24 47 0 50 2 53 28 3 28 -6 32 -66 27 -35 -3 -54
17 -41 42 10 18 19 20 70 16 70 -5 89 7 71 47 -7 14 -17 24 -24 23 -7 -1 -48
-4 -90 -7z"/>
<path d="M7129 1783 c-6 -44 2 -298 9 -305 5 -5 18 -8 28 -6 17 3 19 14 20 83
0 67 3 80 17 83 9 2 17 0 17 -5 0 -4 16 -26 36 -48 19 -22 49 -59 66 -82 17
-24 39 -43 48 -43 15 0 16 15 12 153 -4 163 -14 194 -50 171 -17 -12 -22 -70
-12 -139 8 -46 -21 -43 -57 7 -18 24 -48 61 -67 83 -20 22 -36 43 -36 48 0 4
-7 7 -15 7 -8 0 -15 -3 -16 -7z"/>
<path d="M7462 1778 c-16 -16 -15 -45 1 -55 6 -4 28 -8 47 -8 l35 0 0 -110 c1
-140 0 -135 35 -135 22 0 30 5 31 18 0 9 1 64 2 122 l2 105 37 0 c50 0 65 16
49 51 -10 23 -15 25 -48 19 -44 -8 -136 -9 -161 -1 -10 3 -23 1 -30 -6z"/>
<path d="M8133 1772 c-36 -19 -73 -63 -73 -85 0 -9 -5 -19 -11 -23 -17 -10 -5
-92 18 -123 40 -53 111 -89 156 -77 38 9 102 56 120 88 73 127 -81 289 -210
220z m117 -65 c26 -20 50 -60 50 -83 0 -11 -16 -37 -35 -57 -43 -44 -77 -48
-120 -13 -26 21 -30 30 -30 76 0 43 4 54 25 70 28 22 87 26 110 7z"/>
<path d="M1284 1767 c-2 -7 -3 -76 -2 -152 l3 -140 30 0 c29 0 30 1 30 50 l0
50 40 3 c125 9 168 133 65 184 -43 22 -158 25 -166 5z m146 -62 c7 -9 10 -25
6 -40 -6 -24 -11 -26 -49 -23 -35 3 -43 7 -45 26 -2 13 -1 30 2 38 7 19 70 18
86 -1z"/>
<path d="M7783 1769 c-7 -7 -9 -37 -6 -83 3 -39 1 -97 -4 -128 -11 -65 -3 -88
31 -88 33 0 48 22 44 67 l-3 38 43 3 c33 2 50 11 77 38 54 53 43 114 -25 149
-34 18 -141 20 -157 4z m141 -64 c16 -12 18 -19 8 -40 -10 -21 -19 -25 -52
-25 -46 0 -59 17 -42 56 13 28 55 32 86 9z"/>
<path d="M1257 1242 c-2 -4 -3 -77 -3 -162 l1 -155 26 -3 c43 -5 52 16 38 93
-14 80 -3 101 33 63 45 -46 103 -119 110 -139 5 -12 17 -19 33 -19 l25 0 0
150 c0 147 -1 151 -22 159 -37 14 -61 -5 -54 -42 20 -111 20 -117 -2 -117 -11
0 -32 16 -48 38 -15 20 -40 50 -56 66 -15 17 -28 35 -28 40 0 13 -48 37 -53
28z"/>
<path d="M8474 1232 c-12 -9 -24 -24 -28 -32 -26 -56 -68 -110 -86 -110 -17 0
-90 94 -90 116 0 13 -48 40 -56 31 -10 -9 -4 -300 5 -310 5 -5 19 -7 32 -5 23
3 24 6 21 76 -2 56 0 72 11 72 16 0 41 -26 50 -52 4 -10 16 -18 27 -18 11 0
23 8 27 18 9 25 34 52 50 52 10 0 12 -17 11 -72 -3 -67 -1 -73 18 -76 11 -2
26 3 32 10 13 17 19 295 6 308 -5 5 -18 2 -30 -8z"/>
<path d="M9233 1232 c-44 -14 -83 -56 -109 -117 -12 -31 -12 -39 3 -77 21 -55
29 -65 75 -94 72 -46 164 -21 214 57 75 119 -48 276 -183 231z m85 -66 c29
-16 62 -64 62 -92 0 -25 -54 -82 -86 -90 -37 -9 -92 30 -100 71 -9 50 7 87 47
107 40 21 47 21 77 4z"/>
<path d="M680 1223 c-50 -26 -89 -88 -90 -141 0 -82 78 -162 159 -162 45 0
100 25 123 55 14 19 14 23 -3 44 l-19 23 -33 -24 c-17 -13 -40 -28 -50 -31
-29 -11 -84 21 -102 59 -15 32 -15 37 1 70 27 57 85 72 136 34 38 -28 72 -23
76 10 6 58 -126 100 -198 63z"/>
<path d="M6607 1202 c-9 -21 -17 -45 -17 -53 0 -9 -7 -24 -15 -35 -8 -10 -15
-26 -15 -35 0 -9 -7 -22 -15 -29 -8 -7 -15 -20 -15 -30 0 -10 -7 -23 -15 -30
-8 -7 -15 -25 -15 -40 l0 -27 133 1 132 1 3 28 c2 15 -4 34 -12 43 -9 8 -16
23 -16 32 0 9 -7 26 -15 36 -8 11 -15 27 -15 37 0 9 -7 22 -15 29 -8 7 -15 23
-15 37 0 28 -27 73 -44 73 -7 0 -20 -17 -29 -38z m69 -168 c10 -39 -2 -54 -41
-54 -49 0 -56 21 -26 70 5 8 12 24 16 35 6 19 7 19 26 -4 11 -13 22 -34 25
-47z"/>
<path d="M6847 1233 c-16 -4 -17 -18 -15 -156 3 -151 3 -152 27 -155 13 -2 28
1 33 6 5 5 10 74 11 152 2 124 0 143 -15 151 -9 5 -18 8 -20 8 -2 -1 -11 -3
-21 -6z"/>
<path d="M7083 1233 c-7 -2 -13 -17 -13 -33 0 -15 -7 -33 -15 -40 -8 -7 -15
-21 -15 -30 0 -10 -7 -31 -14 -47 -8 -15 -18 -35 -21 -43 -3 -8 -14 -28 -24
-45 -11 -16 -20 -40 -20 -52 -1 -32 39 -31 70 1 37 37 100 38 137 3 31 -30 60
-35 68 -13 3 8 -7 41 -22 73 -14 32 -34 74 -42 93 -8 19 -21 47 -29 62 -7 14
-13 35 -13 46 0 15 -22 36 -33 31 -1 0 -8 -3 -14 -6z m35 -145 c17 -17 15 -65
-3 -72 -24 -9 -45 4 -45 29 0 50 22 69 48 43z"/>
<path d="M7277 1221 c-3 -12 3 -27 15 -38 43 -39 79 -93 74 -110 -4 -10 -24
-38 -46 -63 -22 -25 -40 -54 -40 -66 0 -19 6 -21 109 -22 115 -2 137 6 129 45
-3 14 -14 18 -53 20 -28 1 -58 2 -68 2 -15 1 -16 4 -7 22 7 11 20 29 31 40 26
26 24 45 -6 71 -40 35 -33 50 21 46 50 -3 73 14 61 46 -5 13 -22 16 -89 16
-46 0 -93 3 -104 6 -16 4 -23 0 -27 -15z"/>
<path d="M7883 1232 c-9 -6 -14 -51 -16 -151 -3 -152 1 -165 45 -159 20 3 23
9 25 53 1 28 2 58 2 68 1 14 11 17 62 17 l61 0 -2 -52 c-4 -86 -3 -88 30 -88
22 0 30 5 30 18 3 160 1 283 -5 291 -8 13 -25 14 -45 1 -9 -6 -14 -27 -15 -62
l0 -53 -55 4 c-30 1 -57 5 -59 7 -3 2 -4 27 -2 54 1 28 -2 50 -8 50 -5 0 -15
2 -23 5 -7 3 -19 1 -25 -3z"/>
<path d="M8678 1229 c-10 -5 -18 -22 -18 -37 0 -15 -7 -36 -15 -46 -8 -11 -15
-27 -15 -37 0 -9 -7 -22 -15 -29 -8 -7 -15 -21 -15 -32 0 -11 -9 -31 -20 -45
-11 -14 -20 -39 -20 -54 0 -24 4 -29 25 -29 15 0 31 9 41 25 14 21 24 25 66
25 42 0 54 -4 70 -25 13 -16 29 -25 49 -25 24 0 29 4 29 24 0 14 -4 27 -9 30
-12 8 -51 84 -51 100 0 7 -7 19 -15 26 -8 7 -15 21 -15 31 0 11 -4 27 -10 37
-5 9 -14 29 -20 45 -10 29 -16 32 -42 16z m40 -169 c4 -36 -10 -50 -39 -43
-24 7 -25 45 -3 68 23 23 38 14 42 -25z"/>
<path d="M9474 1231 c-12 -12 1 -39 41 -87 25 -28 45 -55 45 -58 0 -11 -74
-106 -82 -106 -4 0 -8 -13 -8 -28 l0 -29 105 -1 c103 -1 105 -1 111 23 9 36
-3 47 -50 45 -79 -3 -83 2 -36 52 17 17 30 34 30 39 0 4 -11 21 -25 37 -38 45
-33 55 20 48 42 -7 46 -5 57 19 7 15 8 29 2 34 -9 9 -202 20 -210 12z"/>
<path d="M975 1220 c-9 -15 -9 -261 0 -282 11 -27 174 -26 198 0 35 39 12 55
-73 51 -56 -3 -73 8 -68 42 3 21 9 24 50 27 31 2 48 8 52 19 11 27 -13 43 -54
37 -32 -5 -40 -3 -49 14 -16 31 9 46 69 40 39 -4 53 -1 66 13 9 10 14 25 11
34 -5 12 -25 15 -101 15 -55 0 -98 -4 -101 -10z"/>
<path d="M1579 1218 c-2 -18 2 -42 8 -48 2 -3 23 -5 46 -5 l42 0 0 -120 0
-120 32 -3 c46 -5 52 15 41 132 -11 109 -6 121 43 111 30 -7 65 25 56 50 -5
12 -29 15 -137 15 -97 0 -130 -3 -131 -12z"/>
<path d="M1912 1078 l3 -153 97 -3 c88 -2 98 -1 107 17 21 38 4 50 -72 53
l-72 3 0 30 c0 27 3 30 35 33 59 4 80 12 80 28 0 19 -21 27 -73 28 -38 1 -42
4 -42 26 0 24 3 25 60 26 72 0 85 7 85 40 0 24 0 24 -105 24 l-106 0 3 -152z"/>
<path d="M2207 1223 c-2 -5 -3 -73 -3 -153 l1 -145 30 0 c30 0 30 1 33 58 3
53 5 58 25 55 12 -2 26 -12 32 -23 38 -75 93 -118 121 -94 21 17 18 27 -26 71
-45 46 -49 62 -20 80 15 10 20 24 20 60 0 39 -4 50 -31 72 -27 23 -40 26 -104
26 -41 0 -75 -3 -78 -7z m122 -54 c25 -9 31 -17 31 -39 0 -29 -15 -40 -54 -40
-43 0 -61 44 -30 74 18 19 14 19 53 5z"/>
<path d="M7552 1198 c3 -31 5 -33 40 -30 21 1 40 -3 44 -10 4 -7 8 -62 8 -123
l1 -110 26 -3 c43 -5 49 13 40 123 -9 112 -3 130 40 121 19 -3 35 1 51 13 19
16 20 21 9 35 -11 13 -36 16 -138 16 l-124 0 3 -32z"/>
<path d="M8834 1216 c-3 -8 0 -24 6 -36 9 -16 19 -20 48 -18 l37 3 5 -120 5
-120 30 0 30 0 0 120 0 120 37 0 c42 0 74 25 65 49 -9 22 -255 24 -263 2z"/>
</g>
</svg>
