<?xml version="1.0" standalone="no"?> <!DOCTYPE svg PUBLIC "-//W3C//DTD SVG 20010904//EN" "http://www.w3.org/TR/2001/REC-SVG-20010904/DTD/svg10.dtd"> <svg version="1.0" xmlns="http://www.w3.org/2000/svg" width="320.000000pt" height="340.000000pt" viewBox="0 0 320.000000 340.000000" preserveAspectRatio="xMidYMid meet"> <g transform="translate(0.000000,340.000000) scale(0.100000,-0.100000)" fill="#ffffff" stroke="none"> <path d="M542 3210 c-7 -11 -15 -40 -18 -64 -4 -26 -13 -47 -25 -54 -16 -10 -22 -7 -46 25 -15 19 -40 49 -54 66 -26 30 -26 30 -68 -8 -42 -38 -42 -38 -18 -64 13 -14 34 -43 47 -64 21 -36 22 -39 5 -57 -14 -15 -31 -20 -72 -20 -38 0 -55 -4 -59 -15 -7 -18 85 -134 107 -134 12 -1 22 17 35 59 28 93 36 95 105 22 33 -34 68 -62 79 -62 24 0 50 36 50 71 0 26 -58 112 -82 122 -23 10 20 35 72 42 94 13 100 49 19 119 -49 41 -59 44 -77 16z m62 -81 c-8 -14 -34 -11 -34 4 0 8 3 17 7 20 9 9 34 -13 27 -24z m-153 -62 c48 -38 104 -129 95 -153 -4 -11 -11 -9 -30 9 -34 31 -49 43 -73 55 -12 7 -28 33 -37 58 -9 26 -24 53 -33 61 -10 8 -12 12 -5 8 6 -3 12 -1 12 6 0 13 1 12 71 -44z"/> <path d="M1472 3090 c-692 -88 -1235 -631 -1328 -1330 -25 -189 -15 -365 31 -558 196 -819 1029 -1329 1835 -1127 818 206 1314 1032 1114 1855 -139 578 -601 1022 -1184 1140 -120 25 -352 34 -468 20z m448 -45 c41 -8 80 -22 86 -30 6 -8 14 -54 17 -102 6 -83 5 -89 -20 -121 -28 -37 -45 -38 -138 -13 -76 20 -127 14 -168 -20 -20 -17 -37 -34 -37 -39 0 -5 -12 -26 -26 -47 -23 -35 -25 -43 -19 -108 8 -84 2 -92 -71 -101 -56 -8 -124 -54 -124 -85 0 -14 -15 -27 -52 -44 -29 -14 -59 -25 -66 -25 -7 0 -22 -15 -33 -32 -18 -29 -20 -45 -16 -123 3 -61 9 -92 18 -98 11 -7 4 -20 -31 -57 -90 -95 -160 -181 -181 -223 -12 -23 -33 -56 -46 -73 -42 -56 -46 -89 -18 -166 14 -38 25 -89 25 -113 0 -72 48 -115 182 -164 78 -29 203 -58 285 -66 96 -9 147 -44 156 -104 3 -22 15 -54 27 -71 33 -46 63 -128 67 -185 3 -36 -3 -72 -21 -128 -14 -42 -22 -85 -19 -95 4 -9 28 -42 55 -71 28 -32 48 -65 48 -78 0 -37 78 -108 126 -116 56 -10 109 -9 137 2 44 17 100 75 124 129 38 86 91 155 136 179 23 12 66 46 96 76 54 56 54 56 49 192 -5 136 -5 136 32 194 21 33 46 63 55 68 9 5 22 19 28 30 7 12 32 55 55 97 42 73 43 79 38 139 -3 34 -8 81 -12 105 -6 42 -5 44 54 106 70 73 80 99 64 174 -6 30 -9 59 -6 63 8 13 59 11 89 -3 16 -7 28 -23 32 -39 3 -15 27 -54 53 -86 27 -32 62 -80 78 -108 16 -27 49 -67 72 -88 43 -38 43 -38 36 -125 -29 -360 -184 -699 -437 -951 -211 -212 -463 -349 -760 -412 -149 -32 -428 -33 -576 -1 -193 42 -366 113 -520 215 -103 68 -233 177 -282 238 -30 36 -30 36 -3 74 26 36 27 43 24 139 -3 112 8 172 44 246 13 28 24 57 24 65 0 19 -72 99 -122 135 -136 99 -181 162 -243 341 -21 61 -36 86 -72 120 -45 42 -45 42 -39 104 7 72 46 225 82 328 35 95 111 243 143 276 15 15 36 40 49 55 22 29 22 29 136 24 114 -5 114 -5 165 39 29 25 59 59 68 76 38 75 136 167 177 167 9 0 22 -15 30 -35 13 -31 19 -35 53 -35 50 0 125 21 193 53 30 15 92 40 137 57 95 36 130 61 149 106 30 72 14 110 -63 155 -47 28 -47 28 -3 32 83 9 354 -3 430 -18z m-456 -32 c74 -41 85 -61 66 -117 -15 -46 -51 -71 -152 -105 -46 -15 -103 -38 -127 -50 -95 -49 -201 -67 -201 -34 0 25 -30 53 -58 53 -13 0 -39 -9 -57 -20 -36 -22 -124 -120 -143 -160 -7 -15 -33 -45 -58 -66 -44 -39 -44 -39 -152 -35 -59 1 -108 4 -109 5 -1 1 26 34 60 74 193 218 438 374 710 452 90 25 127 35 148 39 4 0 36 -16 73 -36z m659 -22 c570 -196 970 -719 1013 -1321 7 -95 7 -95 -31 -60 -21 19 -44 51 -52 70 -8 19 -32 53 -53 75 -32 35 -52 65 -80 125 -24 52 -130 78 -165 40 -16 -18 -17 -25 -5 -79 7 -32 9 -69 5 -81 -4 -13 -34 -51 -66 -86 -33 -35 -59 -70 -59 -79 0 -8 -7 -15 -16 -15 -8 0 -37 -7 -64 -16 -70 -23 -80 -18 -104 51 -21 60 -69 138 -101 165 -9 8 -44 47 -77 88 -60 74 -60 74 -53 157 7 82 7 82 -26 99 -27 14 -58 17 -154 15 -168 -2 -173 -2 -198 24 -30 31 -120 87 -140 87 -9 0 -19 5 -22 10 -10 16 -53 12 -83 -7 -15 -10 -52 -40 -83 -68 -31 -29 -73 -56 -96 -63 -22 -7 -46 -19 -53 -27 -7 -8 -25 -15 -40 -15 -32 0 -40 18 -40 91 0 77 14 102 69 122 59 21 101 52 101 76 0 30 37 54 97 63 36 6 67 17 82 31 21 20 23 27 17 93 -5 65 -3 75 19 108 14 20 25 40 25 45 0 4 11 18 25 31 22 21 30 22 96 16 39 -3 79 -11 89 -16 22 -12 80 -13 97 -2 6 4 24 25 38 46 26 38 26 41 18 132 -6 68 -6 94 3 94 6 0 36 -9 67 -19z m-455 -760 c9 -5 33 -15 53 -24 19 -8 57 -33 83 -56 53 -46 48 -45 226 -42 162 3 166 1 154 -94 -9 -69 -9 -69 -49 -78 -26 -5 -77 -3 -147 8 -59 8 -124 15 -145 15 -31 0 -46 7 -73 35 -50 51 -122 75 -233 76 -51 1 -103 4 -117 8 -25 8 -25 8 6 15 18 4 58 31 90 60 97 86 115 96 152 77z m7 -208 c32 -11 61 -29 84 -54 30 -34 40 -39 79 -39 24 0 91 -7 148 -15 73 -11 119 -13 153 -7 56 10 64 6 108 -58 17 -25 48 -61 68 -80 50 -48 91 -116 106 -173 15 -63 43 -82 104 -73 24 4 47 11 50 17 12 19 45 8 60 -21 22 -43 19 -118 -7 -167 -55 -101 -69 -123 -78 -123 -6 0 -10 -6 -10 -14 0 -8 -6 -16 -13 -19 -8 -3 -31 -31 -53 -64 -39 -58 -39 -58 -36 -198 3 -140 3 -140 -39 -183 -24 -24 -62 -52 -84 -63 -54 -26 -165 -172 -165 -219 0 -19 -72 -83 -103 -92 -91 -26 -217 29 -217 96 0 12 -13 35 -30 51 -16 16 -41 45 -55 65 -26 37 -26 37 -4 91 43 107 28 245 -37 340 -14 20 -27 54 -31 75 -11 72 -74 118 -173 129 -102 10 -207 35 -304 72 -111 42 -146 74 -146 135 0 24 -11 74 -24 112 -26 77 -25 96 14 146 15 19 39 58 53 85 14 28 43 68 64 90 21 22 53 59 71 82 19 24 52 56 75 72 42 29 42 29 182 24 85 -3 159 -11 190 -20z m-1467 -397 c17 -20 41 -69 57 -118 38 -115 79 -192 121 -230 20 -18 54 -50 76 -70 22 -21 44 -38 49 -38 12 0 88 -71 100 -93 8 -13 4 -31 -15 -70 -43 -92 -49 -124 -43 -226 6 -82 4 -102 -13 -138 -10 -24 -23 -43 -28 -43 -9 0 -80 97 -130 179 -91 149 -156 316 -192 493 -24 117 -40 388 -23 388 6 0 24 -15 41 -34z"/> <path d="M200 2763 c-61 -139 -134 -333 -156 -420 -22 -83 -27 -133 -34 -333 -8 -215 -5 -268 15 -248 3 3 10 113 15 244 9 261 24 346 88 504 36 88 39 83 11 -20 -16 -56 -22 -116 -26 -237 -5 -162 -1 -213 17 -213 6 0 10 60 10 154 0 171 7 215 70 439 22 79 40 151 40 160 0 34 -30 16 -50 -30z"/> </g> </svg>