<?xml version="1.0" standalone="no"?> <!DOCTYPE svg PUBLIC "-//W3C//DTD SVG 20010904//EN" "http://www.w3.org/TR/2001/REC-SVG-20010904/DTD/svg10.dtd"> <svg version="1.0" xmlns="http://www.w3.org/2000/svg" width="2400.000000pt" height="604.000000pt" viewBox="0 0 2400.000000 604.000000" preserveAspectRatio="xMidYMid meet"> <g transform="translate(0.000000,604.000000) scale(0.100000,-0.100000)" fill="#ffffff" stroke="none"> <path d="M666 5823 c-6 -8 -19 -22 -28 -31 -10 -9 -18 -22 -18 -29 0 -7 -8 -17 -19 -22 -10 -6 -24 -24 -31 -41 -7 -16 -20 -30 -29 -30 -23 0 -74 -57 -67 -75 3 -8 10 -15 16 -15 5 0 10 -13 10 -30 0 -40 -6 -38 -70 20 -39 35 -63 50 -83 50 -16 0 -36 4 -46 10 -15 7 -25 3 -50 -21 -50 -47 -38 -118 30 -189 27 -28 49 -55 49 -61 0 -16 -52 -10 -65 8 -11 15 -15 14 -49 -12 -36 -27 -45 -48 -26 -60 20 -12 10 -21 -19 -17 -21 3 -36 -3 -58 -25 -17 -15 -45 -39 -62 -53 -43 -35 -39 -57 25 -122 63 -65 89 -72 122 -33 23 26 30 65 12 65 -5 0 -10 8 -10 18 1 16 1 16 14 0 20 -27 44 -22 62 13 15 31 15 31 -20 64 -20 18 -36 38 -36 44 0 17 5 14 46 -24 44 -42 66 -44 93 -8 20 24 20 28 6 49 -16 25 -21 74 -7 74 5 0 30 -20 56 -45 51 -48 65 -52 96 -33 34 22 46 -2 32 -63 -24 -103 -10 -171 40 -188 40 -14 34 -16 73 26 28 31 36 35 49 24 43 -36 113 31 84 79 -12 19 -9 24 22 50 19 16 40 30 47 30 26 0 22 22 -9 54 -42 42 -114 54 -198 32 -30 -8 -58 -12 -62 -10 -16 10 -7 44 13 54 24 14 14 35 -46 93 -19 19 -35 39 -35 46 0 15 53 14 68 -1 17 -17 79 19 87 50 3 14 19 29 39 37 19 8 45 28 58 44 14 16 36 31 49 33 19 2 25 10 27 37 7 66 -146 178 -182 134z"/> <path d="M2680 5367 c-3 -2 -81 -10 -175 -17 -93 -6 -195 -18 -225 -25 -30 -8 -80 -18 -110 -23 -30 -5 -68 -14 -85 -20 -105 -35 -134 -44 -168 -53 -21 -5 -48 -16 -60 -23 -12 -8 -33 -17 -47 -21 -28 -8 -108 -42 -130 -56 -8 -5 -26 -14 -40 -19 -35 -15 -40 -17 -85 -45 -22 -13 -50 -28 -62 -34 -12 -6 -44 -25 -70 -44 -26 -18 -55 -36 -63 -40 -85 -40 -412 -330 -510 -453 -8 -10 -42 -53 -75 -94 -115 -142 -315 -484 -315 -537 0 -5 -9 -26 -20 -48 -11 -22 -20 -45 -20 -53 0 -8 -7 -26 -15 -40 -15 -28 -37 -103 -59 -207 -8 -33 -18 -71 -24 -85 -5 -14 -13 -59 -17 -100 -4 -41 -14 -104 -22 -140 -18 -80 -22 -522 -5 -585 6 -22 16 -82 22 -133 6 -52 17 -107 25 -122 8 -16 15 -42 15 -57 1 -15 8 -46 16 -68 9 -22 20 -60 26 -85 6 -25 17 -54 24 -65 8 -11 14 -28 14 -38 0 -26 109 -259 165 -352 13 -22 29 -52 36 -67 6 -16 15 -28 20 -28 5 0 13 -8 16 -17 7 -19 33 -58 71 -108 13 -16 30 -39 38 -50 109 -147 304 -351 407 -426 32 -24 67 -51 76 -59 73 -67 324 -214 496 -290 22 -10 61 -28 86 -39 25 -12 54 -21 63 -21 10 0 27 -5 39 -12 29 -16 137 -47 217 -63 36 -7 77 -17 92 -23 14 -6 79 -16 145 -22 65 -6 136 -15 158 -20 61 -14 319 -12 415 4 47 8 121 18 165 21 44 4 88 12 99 17 10 5 47 14 83 19 35 5 77 16 93 24 16 8 39 15 50 15 12 0 42 8 68 19 26 10 74 28 107 40 54 21 98 40 205 90 37 17 196 106 235 131 86 56 196 134 227 162 20 18 54 47 75 64 158 131 444 477 507 614 4 8 18 33 30 55 49 82 126 244 126 263 0 7 9 29 20 49 11 21 20 47 20 58 0 11 6 29 14 40 7 11 19 44 25 74 6 30 16 60 21 66 5 6 12 38 16 71 4 32 13 74 20 92 49 121 49 796 0 937 -8 22 -17 64 -21 94 -3 30 -12 66 -19 80 -7 14 -16 45 -20 69 -3 24 -13 53 -20 65 -8 12 -17 41 -21 64 -4 23 -13 47 -21 54 -8 6 -14 20 -14 31 0 11 -8 37 -18 57 -10 20 -30 59 -43 86 -157 326 -377 604 -677 854 -67 55 -167 124 -309 212 -68 42 -307 159 -326 159 -7 0 -30 9 -52 20 -22 11 -49 20 -60 20 -11 0 -29 6 -40 14 -11 7 -40 17 -65 21 -25 4 -56 13 -70 20 -14 7 -52 16 -85 20 -33 4 -76 14 -95 21 -48 18 -497 54 -510 41z m330 -198 c30 -5 86 -14 124 -19 72 -10 96 -22 96 -48 0 -8 7 -24 16 -34 10 -10 19 -39 22 -66 4 -45 2 -50 -33 -81 -44 -38 -74 -37 -160 4 -121 58 -164 52 -256 -33 -30 -27 -104 -91 -166 -141 -137 -111 -155 -165 -90 -270 23 -38 9 -61 -38 -61 -11 0 -29 -6 -40 -14 -11 -7 -36 -18 -55 -24 -141 -43 -193 -86 -188 -157 l3 -40 -53 -6 c-68 -9 -132 -49 -132 -84 0 -14 -7 -41 -15 -61 -23 -55 -38 -238 -24 -283 33 -101 125 -161 220 -143 30 6 92 14 139 17 47 4 121 13 165 21 139 24 137 25 253 -74 57 -48 124 -102 150 -121 l47 -33 160 5 c88 4 209 14 268 23 l109 16 25 -24 c14 -12 37 -43 51 -68 14 -25 40 -66 58 -91 17 -25 34 -55 38 -66 4 -12 13 -24 21 -27 8 -3 15 -12 15 -19 0 -8 6 -20 14 -26 8 -7 26 -36 42 -66 15 -30 35 -62 46 -71 10 -10 18 -21 18 -25 0 -5 10 -23 23 -42 12 -19 33 -52 47 -75 40 -65 125 -90 201 -58 22 9 41 11 59 5 45 -16 51 -37 40 -149 l-10 -101 -78 -97 c-43 -53 -98 -124 -122 -157 -44 -61 -53 -72 -90 -113 -53 -58 -68 -183 -42 -353 16 -101 9 -115 -85 -185 -82 -60 -130 -103 -147 -134 -6 -10 -26 -40 -45 -67 -74 -103 -137 -197 -168 -246 -54 -86 -66 -93 -181 -100 -129 -9 -140 -3 -170 76 -30 80 -59 149 -88 212 -13 28 -24 57 -24 65 0 8 -7 24 -15 34 -20 27 -19 116 2 168 36 89 14 248 -44 320 -6 7 -14 27 -17 45 -4 17 -14 37 -22 44 -8 6 -14 19 -14 28 0 9 -8 32 -19 51 -10 19 -21 49 -25 67 -4 17 -13 37 -21 43 -8 6 -16 24 -20 39 -7 33 -90 120 -120 126 -49 10 -211 27 -332 35 -84 5 -142 13 -160 23 -15 8 -53 26 -83 40 -30 13 -76 34 -101 46 -25 11 -53 21 -61 21 -31 0 -51 45 -97 220 -10 36 -23 74 -29 85 -36 69 -38 165 -2 207 84 99 160 192 231 280 45 57 91 110 102 119 26 21 17 45 -20 53 -15 4 -46 27 -68 52 l-41 45 -74 -91 c-41 -50 -85 -105 -97 -122 -35 -47 -95 -121 -114 -140 -10 -10 -30 -34 -46 -55 -15 -21 -30 -40 -33 -43 -57 -51 -78 -193 -41 -274 10 -23 24 -60 30 -83 6 -24 16 -62 22 -85 6 -24 18 -63 26 -88 8 -25 18 -60 23 -78 9 -36 73 -120 99 -130 9 -3 27 -14 40 -24 13 -10 32 -18 41 -18 10 0 23 -6 29 -14 7 -8 27 -18 44 -22 18 -3 43 -12 57 -19 135 -71 200 -85 413 -94 191 -9 180 -4 221 -101 15 -36 33 -76 40 -90 8 -14 17 -39 20 -57 4 -17 13 -37 21 -43 8 -6 17 -25 20 -42 4 -17 15 -45 25 -62 25 -43 32 -97 21 -148 -36 -165 -32 -256 15 -322 8 -11 14 -26 14 -34 0 -7 12 -39 26 -70 14 -31 32 -70 39 -87 7 -16 22 -51 34 -78 11 -26 21 -53 21 -60 0 -6 13 -29 29 -50 72 -94 136 -113 323 -92 180 20 193 28 328 212 19 26 41 58 49 73 8 14 17 27 20 30 4 3 32 43 64 90 74 110 71 108 147 160 164 113 174 134 167 368 l-5 187 27 39 c14 22 36 51 48 64 12 13 37 44 55 69 18 24 60 79 93 121 88 112 101 137 119 237 20 115 20 175 -1 219 -18 38 -16 45 26 111 27 42 74 139 104 215 14 36 33 80 43 98 13 27 15 48 9 106 -11 123 19 121 85 -4 7 -14 16 -27 21 -30 12 -8 84 -164 138 -300 54 -134 77 -159 153 -160 16 0 31 -7 36 -17 12 -24 -2 -191 -22 -268 -9 -32 -16 -75 -16 -94 0 -32 -10 -69 -60 -228 -11 -34 -20 -68 -20 -75 -1 -7 -9 -31 -20 -53 -11 -22 -19 -44 -20 -48 0 -5 -30 -70 -66 -145 -154 -317 -371 -586 -649 -804 -33 -26 -67 -54 -76 -63 -9 -8 -20 -15 -26 -15 -6 0 -16 -7 -23 -15 -7 -9 -42 -32 -78 -53 -35 -20 -80 -47 -100 -59 -21 -12 -44 -25 -52 -28 -33 -14 -56 -25 -70 -35 -8 -5 -42 -21 -75 -35 -33 -15 -69 -31 -80 -36 -11 -5 -42 -16 -70 -23 -27 -8 -63 -19 -80 -25 -87 -30 -166 -50 -220 -55 -33 -4 -82 -13 -110 -22 -85 -26 -627 -22 -720 5 -38 12 -87 21 -107 21 -21 0 -60 9 -88 20 -28 11 -62 20 -76 20 -14 0 -42 9 -64 20 -22 11 -47 20 -57 20 -10 0 -35 9 -56 20 -20 11 -44 20 -52 20 -14 0 -48 15 -115 51 -8 5 -46 25 -85 44 -190 98 -377 235 -568 418 -72 69 -77 83 -48 125 16 21 22 57 31 167 18 213 45 372 82 480 32 93 21 119 -100 217 -143 117 -240 222 -243 264 0 5 -20 36 -45 69 -25 33 -54 78 -65 100 -11 22 -24 47 -28 55 -5 8 -21 49 -36 90 -16 41 -36 93 -46 116 -11 22 -19 47 -19 55 0 8 -4 19 -9 25 -23 23 -93 225 -88 252 24 114 31 143 48 190 10 30 19 62 19 73 0 10 9 36 20 56 11 21 20 47 20 58 0 11 6 29 14 40 7 11 17 31 21 45 27 93 101 220 137 236 21 10 90 71 157 140 128 132 147 143 214 126 118 -31 160 -19 215 63 11 17 48 64 83 107 35 42 87 106 114 142 59 78 89 91 118 52 37 -52 142 -73 203 -41 16 8 43 15 59 15 17 0 46 8 65 19 19 10 53 21 75 25 21 4 52 14 67 22 15 8 35 14 45 14 10 0 36 9 58 20 22 11 43 20 49 20 5 0 66 38 135 84 69 46 147 96 173 111 116 66 136 159 47 214 -22 13 -22 14 -5 27 21 15 273 10 376 -7z m-641 -57 c93 -48 94 -63 14 -107 -37 -21 -88 -51 -112 -67 -43 -29 -85 -47 -171 -73 -73 -23 -163 -55 -187 -67 -33 -16 -53 -4 -53 34 0 46 -38 86 -103 111 -29 11 -15 29 39 47 27 10 92 32 144 49 52 18 109 39 127 47 17 8 42 14 55 15 12 0 43 9 68 19 65 27 116 25 179 -8z m1184 -75 c32 -14 64 -30 70 -36 6 -6 15 -11 21 -11 18 0 218 -102 237 -121 10 -10 23 -19 28 -19 19 0 311 -207 311 -220 0 -6 5 -10 11 -10 6 0 30 -19 54 -42 23 -24 56 -54 71 -68 39 -35 86 -89 161 -185 34 -44 72 -89 83 -100 11 -12 20 -24 20 -27 0 -6 19 -37 61 -98 16 -24 36 -60 75 -135 20 -38 42 -81 49 -95 7 -14 22 -45 33 -70 11 -25 30 -67 42 -93 20 -47 39 -212 40 -364 0 -99 -55 -46 -142 137 -23 47 -69 98 -110 119 -45 25 -46 25 -98 8 -29 -9 -69 -17 -90 -17 -71 0 -120 -118 -76 -184 25 -39 20 -96 -18 -177 -18 -41 -46 -104 -62 -141 -24 -57 -34 -70 -64 -81 -44 -18 -143 -31 -170 -22 -16 5 -140 175 -140 191 0 3 -44 71 -97 152 -54 81 -102 156 -108 167 -6 11 -19 32 -29 47 -15 23 -16 41 -10 145 l7 119 -38 33 -38 33 -97 -7 c-53 -3 -114 -10 -136 -15 -53 -13 -211 -12 -219 0 -3 6 -14 10 -23 10 -10 0 -34 9 -55 20 -20 11 -43 20 -49 20 -21 0 -96 55 -175 130 -83 76 -126 89 -191 56 -15 -7 -47 -17 -72 -21 -43 -7 -130 -50 -130 -64 0 -3 -13 -21 -30 -39 -16 -18 -50 -58 -76 -90 -59 -72 -89 -92 -140 -92 -70 0 -79 38 -38 163 17 51 15 50 92 47 41 -1 62 4 97 24 58 34 67 53 63 133 -3 67 -3 67 27 76 17 5 46 15 65 22 197 71 223 88 236 153 7 34 4 40 -41 121 -25 43 -16 101 15 101 5 0 52 36 104 80 52 44 102 80 110 80 15 0 63 -21 138 -61 94 -49 157 -26 272 99 89 97 103 135 70 197 -16 31 3 63 31 51 5 -3 36 -16 68 -29z m-2033 -221 c0 -8 -19 -34 -42 -58 -39 -40 -123 -135 -228 -256 -46 -54 -61 -59 -130 -46 -65 13 -44 44 134 193 203 171 266 211 266 167z m1232 -907 c19 -10 64 -48 109 -90 17 -17 54 -39 99 -59 14 -7 42 -20 62 -31 20 -10 42 -19 48 -19 6 0 32 -10 58 -21 45 -21 56 -21 225 -15 l178 7 -3 -28 c-3 -31 -37 -37 -338 -61 -139 -12 -120 -18 -261 94 -152 121 -179 134 -273 134 -84 0 -98 12 -65 54 28 36 122 56 161 35z m-2282 -1072 c0 -5 9 -20 20 -34 11 -14 20 -34 20 -44 0 -37 35 -105 155 -305 57 -94 104 -151 173 -207 135 -111 145 -122 139 -159 -6 -33 -27 -124 -50 -208 -6 -25 -14 -108 -17 -185 -6 -164 -15 -176 -68 -92 -43 68 -42 66 -107 182 -53 93 -63 115 -95 205 -7 19 -24 58 -36 85 -13 28 -24 55 -24 62 0 6 -6 24 -14 40 -20 42 -54 152 -61 203 -4 25 -12 54 -18 65 -5 10 -16 64 -23 120 -7 55 -19 141 -25 191 -14 102 -8 143 17 110 8 -11 14 -24 14 -29z"/> <path d="M1032 5098 c-6 -7 -14 -27 -18 -43 -4 -17 -13 -39 -20 -50 -8 -11 -14 -27 -14 -36 0 -26 -79 -99 -107 -99 -14 0 -36 -9 -50 -20 -14 -11 -34 -20 -43 -20 -26 0 -43 -23 -28 -38 17 -17 113 -15 128 3 6 8 21 17 33 21 27 8 117 99 117 117 0 8 9 26 21 40 35 45 17 168 -19 125z"/> <path d="M832 5088 c-7 -7 -12 -17 -12 -22 0 -6 -14 -23 -31 -37 -37 -30 -32 -49 12 -49 37 0 69 32 69 69 0 35 -21 56 -38 39z"/> <path d="M930 5071 c-18 -17 -30 -40 -30 -55 0 -14 -4 -26 -10 -26 -5 0 -17 -8 -27 -19 -10 -10 -33 -22 -51 -26 -48 -10 -59 -75 -12 -75 41 0 150 83 150 115 0 8 9 23 21 33 15 14 18 26 13 46 -9 39 -21 41 -54 7z"/> <path d="M252 4988 c-11 -13 -25 -41 -31 -63 -5 -22 -17 -60 -25 -85 -30 -86 -48 -155 -61 -230 -8 -41 -18 -93 -24 -115 -5 -22 -15 -83 -21 -135 -7 -52 -16 -126 -22 -165 -13 -93 -5 -778 10 -825 6 -19 16 -87 21 -151 9 -110 39 -209 62 -209 16 0 19 99 23 590 3 408 7 516 19 565 9 33 19 103 23 155 4 52 13 111 20 131 7 20 15 63 19 95 3 33 12 75 20 94 7 19 20 62 28 95 30 118 40 150 53 177 23 43 17 56 -32 78 -57 25 -56 25 -82 -2z"/> <path d="M12990 4750 l-125 -5 5 -485 c7 -728 8 -704 -12 -708 -10 -2 -29 16 -53 52 -73 110 -282 266 -356 266 -8 0 -24 7 -36 15 -12 9 -53 20 -90 25 -37 6 -90 14 -118 19 -68 13 -182 13 -225 1 -19 -6 -71 -15 -114 -21 -43 -5 -88 -17 -100 -25 -11 -7 -30 -14 -41 -14 -11 0 -60 -20 -108 -45 -157 -80 -286 -194 -376 -332 -17 -26 -38 -57 -46 -68 -8 -10 -15 -26 -15 -35 0 -9 -4 -20 -10 -26 -61 -61 -117 -421 -89 -584 5 -30 13 -84 18 -120 6 -36 17 -79 25 -95 9 -17 16 -37 16 -45 0 -8 11 -37 25 -65 13 -27 25 -53 25 -57 0 -12 68 -112 117 -174 87 -110 291 -257 388 -280 17 -4 46 -15 65 -25 19 -11 51 -19 71 -19 20 0 56 -7 79 -15 49 -17 302 -21 345 -5 14 5 56 15 93 20 37 6 76 17 87 24 11 7 35 17 52 20 17 4 37 14 44 22 6 8 16 14 22 14 38 0 267 201 267 235 0 7 16 24 35 39 31 24 35 25 43 9 8 -17 -4 -189 -23 -304 -5 -34 -3 -48 8 -58 16 -12 240 -22 258 -10 6 3 9 548 9 1429 0 1355 0 1425 -17 1430 -10 3 -74 3 -143 0z m-695 -1079 c39 -7 79 -18 90 -25 11 -7 33 -16 49 -20 17 -4 42 -16 57 -27 15 -10 30 -19 34 -19 15 0 144 -112 177 -153 87 -108 139 -225 160 -357 15 -99 5 -367 -15 -407 -9 -18 -17 -39 -17 -48 0 -22 -46 -119 -82 -172 -73 -108 -211 -225 -301 -255 -18 -6 -38 -15 -44 -21 -7 -5 -45 -16 -85 -24 -40 -8 -91 -19 -113 -23 -55 -12 -133 -12 -175 0 -19 6 -66 15 -104 21 -61 10 -119 31 -166 60 -8 5 -26 15 -40 22 -102 50 -290 262 -290 327 0 9 -9 33 -20 55 -34 67 -64 286 -51 370 26 163 34 201 52 234 10 20 19 43 19 52 0 9 7 22 15 29 8 7 15 18 15 24 0 19 65 109 116 160 101 101 223 165 363 192 41 8 77 16 80 20 9 9 200 -2 276 -15z"/> <path d="M18228 4749 c-12 -7 -13 -519 -2 -946 7 -239 6 -253 -11 -260 -12 -4 -20 -2 -23 6 -21 63 -255 281 -302 281 -10 0 -23 6 -29 14 -7 8 -27 18 -44 21 -18 4 -41 13 -53 20 -12 8 -52 18 -90 24 -38 6 -96 16 -129 22 -66 12 -204 7 -275 -9 -25 -6 -67 -15 -95 -21 -98 -18 -227 -77 -343 -154 -104 -69 -264 -251 -287 -329 -4 -13 -12 -29 -18 -36 -18 -23 -57 -125 -63 -167 -4 -22 -14 -53 -23 -70 -21 -39 -23 -426 -3 -462 7 -13 17 -48 23 -78 25 -135 141 -344 243 -438 17 -15 47 -42 66 -60 33 -30 53 -46 119 -89 38 -26 148 -78 163 -78 7 0 26 -7 42 -15 16 -9 57 -20 90 -24 34 -5 74 -14 89 -20 36 -14 280 -14 327 -1 19 6 63 15 97 20 34 6 74 16 90 24 15 8 55 27 88 42 75 35 141 83 214 156 71 71 79 82 91 113 12 31 38 43 52 24 8 -13 5 -151 -8 -289 -7 -82 -6 -83 140 -83 70 0 129 3 132 6 3 2 5 645 5 1428 1 1371 0 1424 -18 1426 -53 6 -246 7 -255 2z m-583 -1078 c39 -7 81 -19 95 -26 14 -8 54 -27 90 -44 112 -53 244 -184 299 -297 13 -27 29 -58 34 -69 74 -148 72 -510 -4 -671 -10 -22 -19 -43 -19 -47 0 -9 -61 -96 -104 -151 -80 -99 -247 -199 -381 -226 -138 -29 -194 -33 -262 -21 -38 7 -93 17 -123 22 -118 19 -303 130 -376 226 -15 20 -35 44 -44 53 -8 8 -21 26 -27 40 -7 14 -17 32 -22 40 -90 144 -122 445 -67 633 14 49 29 94 33 100 4 7 13 26 19 42 33 96 206 285 281 309 11 4 27 13 33 21 7 8 20 15 29 15 9 0 34 9 55 20 22 10 73 24 114 30 42 6 78 13 81 16 9 9 190 -2 266 -15z"/> <path d="M6033 4578 c-7 -9 -8 -47 -2 -118 10 -137 10 -2272 0 -2415 -6 -77 -5 -117 3 -135 l11 -25 140 3 c77 2 144 8 149 12 10 10 8 447 -3 670 -5 96 -5 160 1 167 8 9 87 11 336 7 180 -3 388 -1 462 4 74 5 142 6 151 1 9 -5 47 -55 85 -111 38 -57 86 -125 106 -153 54 -71 51 -67 70 -95 10 -14 40 -56 67 -95 28 -38 72 -101 98 -140 26 -38 72 -101 100 -139 29 -37 53 -72 53 -77 0 -33 41 -49 128 -49 48 0 116 -5 151 -11 98 -15 107 16 30 101 -22 25 -54 63 -70 85 -17 22 -74 99 -127 170 -53 72 -110 151 -126 175 -17 25 -35 50 -40 55 -6 6 -24 30 -41 55 -37 55 -178 239 -201 262 -18 19 -13 48 9 48 14 0 70 22 157 63 157 73 344 273 376 402 4 17 13 39 20 50 39 61 63 317 41 436 -9 46 -19 104 -22 128 -3 24 -12 53 -20 64 -8 12 -15 27 -15 35 0 76 -147 270 -277 366 -81 59 -232 136 -268 136 -9 0 -28 6 -43 14 -15 8 -50 17 -77 21 -28 4 -72 14 -100 23 -70 22 -1295 32 -1312 10z m1212 -252 c28 -8 77 -17 110 -21 33 -4 68 -13 79 -21 11 -8 27 -14 35 -14 97 0 332 -208 357 -317 3 -15 13 -38 20 -51 40 -62 39 -407 0 -489 -7 -15 -24 -50 -37 -78 -33 -70 -149 -189 -216 -221 -29 -15 -56 -30 -58 -34 -3 -5 -20 -12 -38 -15 -17 -4 -38 -12 -44 -17 -7 -6 -65 -21 -129 -33 -108 -22 -143 -24 -550 -26 -263 -2 -438 1 -444 7 -6 6 -6 71 0 174 11 195 11 767 1 995 -6 118 -4 163 4 170 19 16 848 8 910 -9z"/> <path d="M14050 4583 c0 -5 -1 -609 -1 -1343 0 -1271 1 -1336 18 -1346 12 -7 56 -8 138 -3 137 9 1669 3 1706 -6 14 -3 37 -1 52 4 l28 11 -3 122 -3 123 -822 -4 c-474 -2 -823 0 -823 5 -4 255 0 988 7 993 4 3 316 4 693 1 377 -3 690 -4 697 -2 13 4 23 216 11 236 -5 8 -192 11 -708 11 l-701 0 0 472 c0 260 3 478 7 484 4 8 24 9 58 6 67 -8 1506 -10 1514 -3 7 8 5 223 -3 236 -7 12 -1865 14 -1865 3z"/> <path d="M9515 3926 c-33 -8 -82 -18 -110 -24 -67 -13 -116 -31 -225 -81 -70 -32 -188 -121 -249 -188 -61 -66 -151 -191 -151 -210 0 -6 -6 -16 -14 -22 -8 -7 -18 -27 -22 -44 -3 -18 -12 -43 -20 -57 -15 -28 -40 -118 -55 -200 -16 -82 -6 -417 13 -455 8 -17 18 -47 21 -68 5 -35 33 -106 57 -147 5 -8 18 -34 30 -57 12 -23 34 -58 51 -79 16 -20 29 -40 29 -43 0 -22 148 -153 240 -213 101 -65 285 -138 349 -138 16 0 48 -7 71 -15 107 -38 421 -10 601 53 73 26 202 92 212 109 4 7 13 13 18 13 6 0 41 25 79 55 89 72 98 94 57 136 -13 13 -45 50 -71 82 -58 68 -57 68 -109 14 -62 -62 -124 -109 -192 -141 -33 -16 -71 -35 -85 -42 -57 -27 -307 -57 -378 -45 -195 34 -281 58 -332 94 -13 9 -28 17 -32 17 -51 0 -278 235 -278 287 0 6 -6 16 -14 22 -8 7 -18 27 -22 44 -3 18 -13 45 -21 61 -18 35 -35 158 -24 169 5 5 393 9 862 10 l854 2 3 58 c2 33 -4 93 -12 134 -9 41 -16 92 -16 112 -1 20 -8 54 -16 76 -9 22 -19 56 -23 76 -4 19 -14 48 -23 65 -75 147 -114 208 -173 275 -62 70 -218 189 -266 204 -13 4 -29 11 -35 16 -13 11 -114 47 -164 59 -152 37 -317 48 -415 26z m302 -247 c80 -19 154 -46 193 -69 8 -5 31 -17 50 -27 136 -67 316 -356 323 -516 l2 -39 -722 -2 c-607 -1 -724 1 -728 13 -14 36 27 170 84 281 55 104 178 234 263 276 24 12 61 31 83 41 22 11 78 28 125 37 47 10 87 19 89 22 12 12 161 1 238 -17z"/> <path d="M20030 3929 c-14 -6 -63 -15 -110 -21 -46 -5 -94 -16 -105 -24 -10 -8 -29 -14 -40 -14 -53 0 -279 -135 -360 -215 -96 -95 -235 -314 -235 -371 0 -10 -7 -32 -15 -48 -34 -65 -44 -397 -15 -506 29 -111 43 -156 55 -174 7 -12 16 -32 20 -45 33 -111 285 -375 387 -406 12 -4 30 -13 38 -20 15 -13 98 -47 195 -79 113 -38 460 -43 580 -9 28 7 64 18 81 22 28 7 77 30 169 78 69 36 205 166 226 216 9 20 18 27 33 25 37 -5 23 -390 -19 -542 -30 -106 -129 -249 -210 -301 -48 -31 -139 -74 -156 -75 -9 0 -34 -8 -55 -17 -57 -26 -516 -27 -584 -1 -25 9 -65 20 -90 24 -25 3 -61 15 -80 25 -19 11 -39 19 -45 19 -6 0 -35 13 -65 30 -30 16 -66 35 -80 42 -14 6 -51 33 -82 60 -31 26 -60 48 -64 48 -13 0 -64 -53 -64 -65 0 -7 -9 -20 -20 -30 -11 -10 -20 -22 -20 -28 0 -5 -11 -22 -25 -39 -31 -36 -31 -41 -2 -70 81 -85 406 -238 504 -238 13 0 37 -7 54 -15 19 -10 81 -19 172 -26 78 -5 147 -11 153 -13 19 -7 385 24 404 34 11 6 42 15 69 20 58 11 212 81 241 110 11 11 23 20 28 20 14 0 138 125 168 170 54 82 124 242 124 285 0 14 8 42 17 63 25 53 37 2057 13 2083 -17 18 -240 13 -259 -6 -7 -7 -6 -45 3 -120 13 -100 20 -200 17 -232 -2 -26 -28 -12 -67 35 -109 132 -309 282 -376 282 -7 0 -26 7 -43 16 -16 8 -64 19 -105 24 -41 5 -88 13 -103 19 -35 14 -223 13 -257 0z m352 -261 c42 -8 82 -19 90 -25 7 -6 27 -14 45 -17 17 -4 37 -13 43 -21 6 -8 24 -17 40 -20 15 -3 36 -15 46 -26 9 -10 22 -19 28 -19 49 0 189 -187 250 -332 40 -96 40 -444 0 -505 -7 -12 -14 -28 -14 -35 0 -87 -208 -308 -350 -371 -220 -98 -512 -107 -715 -21 -5 2 -28 15 -50 29 -22 13 -54 30 -71 38 -35 16 -165 143 -186 180 -7 14 -24 44 -38 68 -67 118 -83 204 -77 404 4 169 4 167 69 305 39 80 78 131 154 200 44 40 101 80 113 80 5 0 19 8 32 19 13 10 40 22 59 26 19 4 41 12 48 18 51 41 320 55 484 25z"/> <path d="M22685 3919 c-55 -10 -116 -25 -135 -33 -19 -8 -49 -18 -67 -21 -17 -4 -37 -13 -44 -21 -6 -8 -19 -14 -29 -14 -9 0 -28 -8 -41 -17 -13 -10 -32 -22 -40 -28 -141 -87 -314 -270 -344 -366 -4 -12 -16 -36 -26 -53 -11 -17 -19 -40 -19 -51 0 -11 -7 -30 -15 -41 -8 -12 -19 -46 -24 -75 -5 -30 -15 -72 -21 -94 -16 -59 -14 -356 4 -419 8 -28 19 -69 24 -91 14 -55 43 -138 53 -151 5 -6 23 -37 40 -70 67 -125 181 -246 316 -333 27 -17 53 -35 59 -40 6 -4 21 -12 35 -16 13 -4 33 -13 44 -19 24 -15 166 -58 250 -76 153 -33 418 -21 565 27 25 8 64 19 87 24 23 6 47 17 54 25 6 8 19 14 29 14 9 0 29 9 43 20 14 11 28 20 31 20 16 0 162 109 191 143 40 46 38 52 -34 131 -90 99 -104 104 -146 54 -34 -40 -144 -128 -160 -128 -7 0 -18 -7 -25 -15 -7 -8 -19 -15 -28 -15 -9 0 -34 -9 -56 -19 -40 -19 -159 -43 -283 -57 -41 -4 -85 -1 -135 9 -40 9 -91 18 -113 22 -39 6 -136 39 -165 56 -8 5 -24 13 -36 18 -87 38 -294 241 -294 288 0 4 -9 25 -19 47 -48 100 -81 226 -67 261 6 16 15 17 74 12 91 -9 1630 -9 1644 -1 23 15 -22 370 -56 434 -7 14 -16 38 -20 55 -23 93 -153 291 -239 364 -17 14 -38 33 -46 42 -15 14 -28 23 -100 71 -14 10 -37 22 -51 28 -14 6 -43 19 -65 29 -178 83 -397 108 -600 70z m305 -233 c30 -7 73 -17 95 -21 22 -4 51 -13 65 -21 14 -8 36 -19 50 -24 116 -50 267 -199 314 -310 3 -8 10 -22 15 -30 37 -62 78 -226 61 -244 -5 -5 -330 -9 -727 -9 l-718 0 -3 27 c-4 31 39 173 72 238 60 118 185 259 261 294 17 8 37 18 45 24 116 71 345 108 470 76z"/> <path d="M7102 1688 c-7 -7 -12 -44 -12 -95 0 -90 -2 -94 -37 -61 -38 36 -149 31 -196 -8 -70 -57 -82 -81 -82 -159 0 -79 21 -121 85 -165 51 -36 168 -37 201 -1 l23 24 9 -21 c13 -28 47 -39 62 -19 16 22 11 482 -5 502 -15 18 -32 19 -48 3z m-85 -220 c94 -40 97 -157 7 -204 -76 -40 -164 15 -164 101 0 83 80 136 157 103z"/> <path d="M11102 1688 c-7 -7 -12 -44 -12 -95 0 -86 -5 -96 -34 -64 -12 13 -38 22 -72 27 -201 25 -293 -240 -124 -356 47 -33 166 -36 200 -5 22 19 22 19 39 -4 19 -24 61 -23 61 2 0 7 1 117 1 244 1 173 -2 237 -11 248 -15 18 -32 19 -48 3z m-81 -222 c111 -47 70 -216 -52 -216 -36 0 -89 33 -96 60 -3 14 -10 30 -15 37 -17 22 19 98 55 116 40 20 66 21 108 3z"/> <path d="M15764 1672 c-18 -17 -19 -34 -19 -252 l0 -234 32 -9 c64 -19 63 -23 63 246 0 250 -3 267 -40 267 -9 0 -25 -8 -36 -18z"/> <path d="M17368 1669 c-31 -18 -3 -77 38 -79 14 0 54 43 54 58 0 26 -60 40 -92 21z"/> <path d="M12741 1657 c-8 -11 -11 -80 -9 -248 l3 -234 33 -3 c61 -6 62 -2 61 233 -1 142 -5 220 -13 236 -13 28 -57 37 -75 16z"/> <path d="M13798 1659 c-10 -5 -18 -15 -18 -21 0 -10 -41 -102 -61 -138 -5 -8 -22 -44 -39 -80 -17 -36 -35 -72 -40 -80 -6 -8 -15 -26 -20 -40 -6 -14 -15 -32 -20 -40 -40 -59 -33 -90 19 -90 36 0 46 9 60 50 21 63 27 67 134 72 133 7 144 4 158 -43 27 -87 105 -110 103 -30 -1 29 -6 46 -17 53 -10 5 -17 17 -17 27 0 10 -9 30 -20 44 -11 14 -20 29 -20 33 0 9 -45 106 -61 134 -5 8 -14 26 -19 40 -6 14 -15 34 -22 45 -6 11 -18 32 -26 48 -14 28 -43 35 -74 16z m58 -146 c4 -16 15 -41 24 -58 10 -16 21 -45 25 -62 l7 -33 -81 0 c-91 0 -98 7 -61 68 11 18 20 39 20 46 0 16 38 66 51 66 5 0 12 -12 15 -27z"/> <path d="M6219 1633 c-6 -16 -16 -35 -24 -43 -7 -8 -16 -26 -20 -40 -4 -14 -13 -32 -20 -40 -7 -8 -16 -29 -20 -47 -3 -17 -12 -37 -20 -43 -7 -6 -16 -23 -20 -37 -3 -15 -15 -38 -26 -51 -10 -14 -19 -29 -19 -34 0 -5 -9 -21 -21 -37 -13 -17 -19 -39 -17 -57 7 -60 108 -33 108 29 1 53 36 67 160 61 106 -5 120 -13 139 -74 10 -33 17 -40 46 -46 57 -10 75 28 36 77 -10 13 -22 35 -26 49 -4 14 -16 36 -26 49 -11 13 -19 32 -19 41 0 10 -6 23 -14 29 -8 7 -18 25 -21 41 -3 16 -12 34 -20 40 -8 6 -17 26 -20 43 -4 18 -13 39 -20 47 -8 8 -18 27 -24 43 -9 22 -16 27 -46 27 -30 0 -37 -5 -46 -27z m74 -138 c5 -16 16 -37 24 -46 7 -9 17 -33 20 -53 l6 -36 -82 0 c-44 0 -81 2 -81 4 0 12 25 74 35 86 7 8 16 30 20 48 9 43 44 41 58 -3z"/> <path d="M12152 1647 c-6 -7 -16 -24 -21 -37 -6 -14 -15 -32 -21 -40 -5 -8 -14 -26 -20 -40 -5 -14 -14 -32 -19 -40 -5 -8 -31 -60 -57 -115 -26 -55 -57 -112 -67 -127 -13 -18 -18 -35 -13 -52 13 -53 106 -20 106 37 0 49 35 63 148 61 116 -2 135 -11 147 -70 6 -35 32 -54 75 -54 31 0 37 46 12 80 -12 15 -24 40 -28 54 -3 14 -10 28 -14 31 -9 6 -70 130 -70 143 0 5 -6 15 -14 21 -8 7 -18 26 -21 43 -4 16 -18 46 -31 65 -13 20 -24 40 -24 44 0 14 -56 10 -68 -4z m58 -135 c0 -9 11 -38 25 -64 42 -80 38 -88 -50 -88 -86 0 -93 10 -55 79 11 20 24 48 30 64 11 31 50 39 50 9z"/> <path d="M16857 1615 c-9 -8 -18 -23 -22 -34 -3 -10 -17 -23 -30 -29 -37 -17 -35 -71 3 -93 26 -15 27 -17 22 -90 -9 -133 33 -199 127 -199 89 0 116 29 74 81 -17 21 -21 22 -44 10 -52 -28 -67 -4 -67 104 l0 95 38 0 c51 0 75 18 70 55 -3 28 -6 30 -55 33 -50 3 -51 4 -60 40 -10 41 -32 52 -56 27z"/> <path d="M8204 1554 c-36 -8 -88 -58 -81 -77 10 -28 36 -31 93 -13 76 24 142 -1 132 -51 -3 -16 -14 -18 -85 -18 -67 0 -86 -4 -110 -21 -129 -96 -28 -226 152 -195 50 9 69 9 84 -1 44 -27 53 2 49 154 l-3 138 -41 41 c-42 42 -118 59 -190 43z m134 -220 c31 -9 28 -30 -10 -65 -38 -34 -84 -38 -118 -11 -59 47 32 101 128 76z"/> <path d="M8907 1540 c-27 -21 -29 -22 -48 -4 -15 14 -25 16 -47 8 l-27 -9 -3 -177 -2 -177 36 -7 c51 -9 56 1 55 115 -2 135 2 149 54 171 38 16 48 17 87 6 l43 -13 3 -134 c3 -141 5 -149 53 -149 46 0 51 17 45 154 -6 137 -14 158 -79 207 -46 34 -132 38 -170 9z"/> <path d="M9615 1552 c-105 -37 -161 -144 -128 -244 16 -50 51 -98 71 -98 6 0 15 -7 20 -16 7 -13 29 -18 85 -22 97 -6 169 30 164 83 -2 35 -37 38 -114 8 -103 -38 -199 81 -133 165 36 45 84 55 155 30 69 -24 95 -20 95 15 0 53 -142 105 -215 79z"/> <path d="M10245 1553 c-32 -8 -105 -54 -105 -65 0 -5 -10 -24 -22 -41 -43 -60 -10 -213 51 -234 9 -3 24 -13 33 -20 44 -38 184 -25 227 21 46 49 -11 83 -80 47 l-41 -22 -54 22 c-51 22 -73 47 -59 69 4 7 51 8 132 5 141 -6 153 -2 153 52 0 99 -134 194 -235 166z m94 -89 c39 -19 59 -53 40 -65 -8 -5 -52 -8 -99 -7 -83 3 -85 4 -85 28 0 47 85 73 144 44z"/> <path d="M14525 1551 c-16 -4 -40 -13 -53 -20 -20 -11 -27 -10 -41 3 -48 44 -61 4 -61 -188 0 -174 5 -186 63 -169 l32 9 1 104 c1 162 11 180 102 180 75 -1 86 -21 83 -155 -2 -128 4 -145 48 -145 45 0 51 15 51 131 0 193 -84 287 -225 250z"/> <path d="M15180 1553 c-14 -3 -32 -10 -40 -17 -8 -7 -23 -16 -32 -19 -22 -8 -23 -40 -3 -57 12 -10 24 -10 57 0 86 24 102 24 136 -5 60 -50 41 -65 -83 -65 -89 0 -115 -15 -147 -86 -13 -27 32 -101 72 -121 36 -18 131 -16 158 3 21 15 25 15 42 -1 12 -11 26 -14 39 -10 20 6 21 13 21 152 l0 146 -40 37 c-50 47 -98 58 -180 43z m139 -223 c32 -19 -41 -90 -93 -90 -60 0 -94 70 -44 89 27 10 122 11 137 1z"/> <path d="M16147 1548 c-21 -11 -22 -44 -2 -78 7 -14 21 -38 29 -55 9 -16 20 -37 26 -45 5 -8 14 -26 20 -40 5 -14 14 -32 19 -40 5 -8 18 -34 29 -56 l20 -42 -25 -36 c-28 -38 -66 -49 -77 -21 -10 27 -41 17 -58 -19 -27 -56 -9 -69 84 -65 66 4 79 8 97 29 22 25 91 161 91 178 0 6 6 12 14 15 7 3 16 21 20 40 4 19 13 40 21 47 7 6 17 24 20 40 3 15 15 36 26 46 39 36 13 131 -29 105 -23 -14 -62 -75 -62 -97 0 -12 -7 -27 -15 -34 -8 -7 -17 -27 -21 -44 -3 -18 -16 -46 -29 -62 l-23 -29 -7 27 c-4 15 -13 32 -21 39 -8 6 -14 18 -14 27 0 9 -8 34 -19 56 -10 23 -24 55 -31 73 -13 36 -56 57 -83 41z"/> <path d="M17905 1552 c-123 -40 -177 -207 -100 -305 17 -20 35 -37 42 -37 7 0 16 -8 22 -17 31 -56 251 -11 251 51 0 55 -68 63 -128 14 -13 -12 -85 4 -109 24 -19 15 -26 92 -14 131 20 58 96 74 176 36 54 -25 78 -14 73 34 -6 56 -129 96 -213 69z"/> <path d="M18495 1552 c-131 -46 -120 -198 17 -218 50 -7 108 -34 108 -50 0 -36 -58 -45 -132 -20 -97 33 -141 -19 -61 -72 48 -31 198 -24 245 11 95 73 42 175 -99 192 -76 8 -111 37 -78 61 31 23 64 28 104 14 80 -26 124 5 82 59 -19 25 -138 40 -186 23z"/> <path d="M7456 1534 c-3 -8 5 -36 19 -62 14 -26 25 -52 25 -58 0 -6 6 -17 14 -23 8 -7 17 -24 21 -39 4 -15 12 -34 19 -42 8 -8 17 -28 20 -45 12 -50 53 -95 86 -95 30 0 60 22 60 45 0 8 9 29 20 47 11 18 20 43 20 54 0 12 6 24 14 27 8 3 17 21 21 39 4 18 16 39 26 46 11 7 19 25 19 40 0 15 4 34 10 42 13 20 -6 40 -39 40 -28 0 -81 -78 -81 -119 0 -10 -6 -24 -14 -30 -8 -7 -17 -24 -21 -39 -10 -42 -55 -83 -55 -50 0 11 -40 103 -65 150 -8 14 -15 33 -15 40 0 40 -90 68 -104 32z"/> <path d="M17374 1539 c-13 -22 -17 -338 -4 -354 16 -19 54 -19 70 -1 13 16 9 333 -4 355 -9 14 -53 14 -62 0z"/> </g> </svg>