<svg width="413" height="322" xmlns="http://www.w3.org/2000/svg" data-name="Layer 1">

 <title>Detectron2-Logo-Horz</title>
 <g>
  <title>Layer 1</title>
  <path id="svg_1" fill="#aab4bc" d="m171.02,11.56001l71.34,0a4.87,4.87 0 0 1 4.87,4.87l0,5a0,0 0 0 1 0,0l-81.07,0a0,0 0 0 1 0,0l0,-5a4.87,4.87 0 0 1 4.86,-4.87z" class="cls-1"/>
  <path id="svg_2" fill="#d2d6d7" d="m392.7,81.23001l0,162.94c0,0.69 0,1.33 0,2a59.73,59.73 0 0 1 -59.73,57.74l-252.46,0a59.8,59.8 0 0 1 -59.83,-59.74l0,-162.94c0,-0.69 0,-1.33 0,-2a59.33,59.33 0 0 1 8.79,-29.21c0.76,-1.24 1.57,-2.46 2.42,-3.64a59.76,59.76 0 0 1 48.62,-24.92l252.42,0a59.78,59.78 0 0 1 59.77,59.77z" class="cls-2"/>
  <rect id="svg_3" fill="#9da2ab" rx="10.15" height="41.28" width="55.95" y="243.45001" x="178.59" class="cls-3"/>
  <path id="svg_4" fill="#e7eef1" d="m224.39,241.28001l-35.61,0a12.33,12.33 0 0 0 -12.36,12.28l0,21a12.33,12.33 0 0 0 12.36,12.33l35.65,0a12.32,12.32 0 0 0 12.27,-12.33l0,-21a12.32,12.32 0 0 0 -12.31,-12.28zm-35.61,4.33l35.65,0a8,8 0 0 1 8,8l0,1.45l-51.65,0l0,-1.5a8,8 0 0 1 8,-7.95zm43.63,13.76l0,9.43l-51.63,0l0,-9.43l51.63,0zm-8,23.19l-35.63,0a8,8 0 0 1 -8,-8l0,-1.44l51.61,0l0,1.44a8,8 0 0 1 -8,8l0.02,0z" class="cls-4"/>
  <path transform="rotate(90 579.8 -255.18)" id="svg_5" fill="#aab4bc" d="m962.01002,-78l71.34,0a4.87,4.87 0 0 1 4.87,4.87l0,5a0,0 0 0 1 0,0l-81.07,0a0,0 0 0 1 0,0l0,-5a4.87,4.87 0 0 1 4.86,-4.87z" class="cls-1"/>
  <path transform="rotate(-90 -166.41 198.65)" id="svg_6" fill="#aab4bc" d="m-166.13,375.83l71.34,0a4.87,4.87 0 0 1 4.87,4.87l0,5a0,0 0 0 1 0,0l-81.08,0a0,0 0 0 1 0,0l0,-5a4.87,4.87 0 0 1 4.87,-4.87z" class="cls-1"/>
  <circle id="svg_7" fill="#aab4bc" r="6.28" cy="264.09001" cx="62.82" class="cls-1"/>
  <circle id="svg_8" fill="#aab4bc" r="6.28" cy="264.09001" cx="350.57" class="cls-1"/>
  <circle id="svg_9" fill="#aab4bc" r="6.28" cy="46.62001" cx="206.69" class="cls-1"/>
  <circle id="svg_10" fill="#5173f1" r="20.49" cy="63.45001" cx="348.22" class="cls-5"/>
  <polygon id="svg_11" fill="#aab4bc" points="392.70001220703125,160.54000854492188 296.3899841308594,160.54000854492188 292.04998779296875,160.54000854492188 121.33001708984375,160.54000854492188 116.99002075195312,160.54000854492188 20.67999267578125,160.54000854492188 20.67999267578125,164.86001586914062 116.99002075195312,164.86001586914062 116.99002075195312,303.94000244140625 121.33001708984375,303.94000244140625 121.33001708984375,164.86001586914062 292.04998779296875,164.86001586914062 292.04998779296875,303.94000244140625 296.3899841308594,303.94000244140625 296.3899841308594,164.86001586914062 392.70001220703125,164.86001586914062 392.70001220703125,160.54000854492188 " class="cls-1"/>
  <g id="svg_12" opacity="0.7" class="cls-6">
   <path id="svg_13" fill="#797f89" d="m383.5,173.56001a81.13,81.13 0 1 1 -81.15,-81.1a81.12,81.12 0 0 1 81.15,81.1z" class="cls-7"/>
  </g>
  <path id="svg_14" fill="#e3e7e9" d="m293.49,84.62001a76.74,76.74 0 1 0 76.74,76.74a76.75,76.75 0 0 0 -76.74,-76.74zm0,132.48a55.74,55.74 0 1 1 55.73,-55.74a55.8,55.8 0 0 1 -55.73,55.74z" class="cls-8"/>
  <path id="svg_15" fill="#161622" d="m356.05,161.35001a62.57,62.57 0 1 1 -125.13,0a61,61 0 0 1 1.93,-15.33a62.55,62.55 0 0 1 123.2,15.33z" class="cls-9"/>
  <path id="svg_16" fill="#9da2ab" d="m293.49,101.75001a59.6,59.6 0 1 1 -59.6,59.6a57.93,57.93 0 0 1 1.89,-14.61a59.72,59.72 0 0 1 57.76,-45m0,-3.65a63.36,63.36 0 0 0 -61.3,47.75a61.81,61.81 0 0 0 -1.95,15.5a63.25,63.25 0 1 0 63.25,-63.25z" class="cls-3"/>
  <g id="svg_17" opacity="0.7" class="cls-6">
   <path id="svg_18" fill="#797f89" d="m208.44,173.56001a81.12,81.12 0 1 1 -81.14,-81.1a81.11,81.11 0 0 1 81.14,81.1z" class="cls-7"/>
  </g>
  <path id="svg_19" fill="#e3e7e9" d="m118.43,84.62001a76.74,76.74 0 1 0 76.75,76.74a76.74,76.74 0 0 0 -76.75,-76.74zm0,132.48a55.74,55.74 0 1 1 55.74,-55.74a55.8,55.8 0 0 1 -55.74,55.74z" class="cls-8"/>
  <path id="svg_20" fill="#161622" d="m181,161.35001a62.57,62.57 0 1 1 -125.13,0a61,61 0 0 1 1.91,-15.33a62.55,62.55 0 0 1 123.2,15.33l0.02,0z" class="cls-9"/>
  <path id="svg_21" fill="#9da2ab" d="m118.43,101.75001a59.6,59.6 0 1 1 -59.6,59.6a58.38,58.38 0 0 1 1.84,-14.61a59.72,59.72 0 0 1 57.76,-45m0,-3.65a63.39,63.39 0 0 0 -61.3,47.75a62.28,62.28 0 0 0 -1.94,15.5a63.25,63.25 0 1 0 63.24,-63.25z" class="cls-3"/>
  <circle id="svg_22" fill="#3f4652" r="29" cy="161.35001" cx="293.49" class="cls-10"/>
  <circle id="svg_23" fill="#3f4652" r="29" cy="161.35001" cx="118.43" class="cls-10"/>
  <circle id="svg_24" fill="#fff" r="12.7" cy="137.05001" cx="134.61" class="cls-11"/>
  <circle id="svg_25" fill="#fff" r="12.7" cy="137.05001" cx="309.67" class="cls-11"/>
  <path id="svg_26" fill="#aab4bc" d="m292.05,21.47001l0,40.86a100.32,100.32 0 0 0 -72.71,33.61l-25.26,0a100.51,100.51 0 0 0 -72.3,-33.56l0,-40.92l-4.33,0l0,40.87a99.56,99.56 0 0 0 -51.5,15.29l-34,-31.27c-0.85,1.18 -1.66,2.4 -2.42,3.64l36,33.1l0,0a95.88,95.88 0 0 1 126,16.46l0.65,0.74l29.18,0l0.65,-0.74a96,96 0 0 1 72.27,-32.89l2.17,0l0,-45.19l-4.4,0z" class="cls-1"/>
 </g>
</svg>