<?xml version="1.0" standalone="no"?> <!DOCTYPE svg PUBLIC "-//W3C//DTD SVG 20010904//EN" "http://www.w3.org/TR/2001/REC-SVG-20010904/DTD/svg10.dtd"> <svg version="1.0" xmlns="http://www.w3.org/2000/svg" width="2400.000000pt" height="540.000000pt" viewBox="0 0 2400.000000 540.000000" preserveAspectRatio="xMidYMid meet"> <g transform="translate(0.000000,540.000000) scale(0.100000,-0.100000)" fill="#ffffff" stroke="none"> <path d="M2272 5200 c-27 -16 -33 -26 -30 -48 3 -23 0 -27 -20 -24 -18 1 -26 -5 -34 -25 -6 -16 -24 -37 -41 -48 -45 -30 -55 -50 -34 -73 44 -49 -4 -42 -59 8 -59 54 -122 57 -166 8 -25 -28 -26 -33 -13 -48 8 -9 15 -28 15 -41 0 -16 15 -39 40 -64 51 -50 50 -59 -3 -52 -54 8 -72 -4 -72 -45 0 -31 -2 -33 -33 -30 -27 3 -34 -1 -42 -22 -5 -14 -16 -26 -23 -26 -7 0 -26 -13 -41 -29 -36 -37 -30 -58 33 -111 67 -55 123 -52 127 7 1 15 3 31 3 36 1 4 12 7 26 7 32 0 43 25 21 49 -20 22 -20 31 -2 31 8 0 16 -7 20 -15 8 -23 32 -18 55 11 19 24 19 28 5 56 -21 40 -6 56 30 33 14 -10 26 -21 26 -26 0 -18 53 -31 79 -19 37 17 51 -3 28 -41 -26 -46 -22 -117 8 -162 32 -46 38 -46 82 -2 28 28 38 33 49 24 11 -9 22 -7 48 5 42 20 51 42 26 63 -19 16 -19 17 5 39 13 12 34 25 45 29 25 8 25 32 1 64 -23 30 -81 40 -165 29 -65 -9 -76 -5 -58 20 27 37 25 45 -18 83 -46 41 -52 82 -9 59 37 -20 89 -4 96 31 4 20 13 31 30 35 14 4 46 24 71 46 26 21 53 43 60 49 24 19 11 45 -49 97 -69 59 -71 60 -117 32z"/> <path d="M3835 4781 c-38 -4 -86 -12 -105 -18 -19 -6 -59 -14 -89 -18 -30 -3 -66 -12 -80 -19 -14 -7 -46 -16 -70 -20 -24 -4 -53 -13 -64 -21 -12 -8 -31 -15 -42 -15 -11 0 -36 -8 -55 -19 -19 -10 -49 -21 -67 -25 -17 -4 -37 -14 -44 -22 -6 -8 -17 -14 -23 -14 -6 0 -40 -16 -76 -35 -36 -19 -76 -40 -90 -47 -159 -81 -517 -385 -623 -529 -10 -13 -44 -58 -76 -99 -31 -41 -64 -87 -72 -102 -8 -14 -38 -67 -66 -117 -29 -50 -53 -95 -53 -100 0 -5 -15 -39 -34 -75 -19 -36 -38 -80 -41 -98 -4 -18 -16 -49 -26 -68 -11 -19 -19 -45 -19 -58 0 -13 -7 -36 -14 -51 -8 -15 -18 -52 -22 -82 -4 -30 -13 -67 -20 -84 -6 -16 -15 -66 -19 -110 -4 -44 -13 -123 -21 -175 -24 -164 -19 -279 26 -565 20 -130 84 -345 131 -440 10 -22 19 -45 19 -52 0 -6 16 -40 34 -75 19 -34 45 -82 56 -106 62 -122 245 -364 372 -492 86 -87 231 -210 246 -210 6 0 15 -6 19 -13 8 -12 132 -97 163 -111 8 -4 33 -18 55 -31 35 -21 96 -52 200 -101 17 -8 44 -18 60 -24 17 -5 68 -23 115 -40 47 -17 106 -35 132 -40 26 -5 55 -13 65 -18 10 -5 58 -15 106 -21 48 -7 100 -17 115 -23 46 -19 494 -14 567 6 32 9 78 16 102 16 24 0 69 9 100 19 32 11 78 23 103 26 25 4 55 13 67 21 12 8 33 14 45 14 13 0 39 8 58 19 19 10 49 21 67 25 17 4 37 14 44 22 6 8 17 14 25 14 41 0 389 203 451 264 12 11 28 26 35 31 130 100 408 393 408 430 0 4 15 25 34 48 34 43 126 199 126 215 0 5 6 15 14 21 8 7 17 24 21 39 4 15 12 33 18 40 15 19 67 150 67 171 0 9 6 23 13 29 13 14 39 104 62 217 8 39 19 80 24 92 40 91 39 689 -1 813 -6 19 -17 64 -24 100 -22 115 -85 315 -104 334 -6 6 -10 16 -10 24 0 21 -115 248 -158 313 -9 14 -29 43 -43 65 -88 131 -398 473 -431 474 -3 0 -30 20 -60 43 -109 89 -450 287 -493 287 -6 0 -28 9 -50 20 -22 11 -49 20 -60 20 -11 0 -30 6 -41 14 -11 8 -42 19 -70 25 -55 12 -147 33 -244 58 -72 18 -532 28 -665 14z m470 -161 c198 -15 233 -25 261 -81 38 -76 39 -94 1 -135 -32 -36 -33 -36 -77 -24 -25 7 -52 19 -62 27 -21 18 -114 32 -153 21 -17 -4 -50 -26 -75 -48 -25 -23 -76 -67 -114 -98 -139 -115 -146 -124 -146 -182 0 -28 7 -65 16 -81 24 -48 16 -59 -71 -88 -170 -57 -207 -86 -217 -171 -3 -22 -9 -26 -48 -30 -80 -10 -120 -54 -120 -134 0 -17 -7 -56 -15 -86 -31 -116 -15 -180 65 -255 31 -30 33 -30 133 -28 56 1 131 9 167 17 85 19 213 28 243 17 12 -5 54 -39 92 -76 139 -136 171 -144 490 -114 177 17 193 12 225 -67 4 -11 33 -58 64 -103 31 -45 56 -84 56 -88 0 -10 189 -290 205 -303 11 -9 39 -11 101 -7 129 9 138 3 131 -86 -6 -86 -30 -152 -74 -204 -67 -79 -176 -220 -210 -270 l-35 -52 2 -163 c1 -90 1 -172 1 -184 -1 -14 -19 -32 -53 -54 -60 -38 -188 -165 -188 -186 0 -8 -9 -22 -20 -31 -11 -10 -20 -22 -20 -27 0 -5 -16 -28 -35 -51 -19 -23 -40 -54 -46 -69 -7 -14 -15 -26 -19 -26 -4 0 -13 -13 -20 -29 -24 -59 -57 -78 -146 -84 -44 -3 -90 -4 -102 0 -22 5 -62 63 -62 90 0 9 -9 30 -19 47 -10 17 -22 45 -26 63 -3 17 -13 37 -21 44 -8 6 -14 20 -14 31 0 10 -9 36 -20 58 -23 46 -26 110 -6 148 30 58 31 153 1 218 -27 59 -42 93 -75 169 -10 22 -27 61 -39 86 -12 25 -21 52 -21 59 0 19 -50 102 -74 122 -66 57 -110 68 -261 68 -169 0 -210 11 -387 101 -20 10 -44 19 -53 19 -8 0 -25 11 -37 25 -21 24 -31 51 -58 155 -7 25 -21 68 -31 96 -41 108 -38 141 21 214 29 36 55 67 59 70 5 3 25 28 46 55 20 28 59 75 85 105 53 60 100 126 100 139 0 5 -18 11 -41 15 -34 5 -42 12 -55 41 -8 19 -18 35 -23 35 -9 0 -48 -36 -71 -66 -8 -11 -26 -33 -40 -50 -14 -17 -36 -45 -50 -64 -14 -18 -32 -40 -41 -49 -8 -9 -53 -63 -100 -121 l-84 -104 1 -91 c1 -67 6 -103 22 -140 11 -27 23 -70 26 -94 4 -24 13 -53 21 -64 8 -12 15 -33 15 -47 1 -70 69 -160 149 -196 31 -14 81 -37 111 -51 30 -14 69 -31 85 -39 80 -37 164 -53 312 -60 174 -8 167 -4 207 -104 49 -120 90 -213 116 -262 25 -46 25 -70 0 -148 -25 -80 -26 -160 -1 -214 10 -23 31 -70 46 -106 14 -36 33 -78 40 -95 8 -16 26 -61 42 -100 56 -137 126 -181 277 -171 194 12 232 36 354 215 157 231 170 246 252 309 44 35 95 82 112 105 l30 42 -5 173 -5 172 63 83 c36 45 100 127 143 182 75 95 80 104 95 183 19 92 22 207 7 217 -18 11 -10 51 20 98 17 26 30 50 30 53 0 5 42 101 100 227 18 40 21 59 16 104 -6 53 -6 54 16 47 13 -3 23 -7 24 -8 39 -57 124 -220 124 -239 0 -7 11 -34 25 -62 13 -27 25 -57 25 -65 1 -8 14 -35 29 -60 26 -43 40 -52 105 -65 l29 -6 -7 -120 c-4 -66 -14 -145 -23 -177 -9 -31 -19 -79 -22 -107 -4 -27 -11 -57 -16 -64 -5 -8 -16 -42 -26 -75 -29 -104 -43 -138 -108 -276 -47 -99 -97 -189 -115 -209 -9 -10 -16 -22 -16 -28 0 -5 -9 -18 -20 -28 -11 -10 -20 -22 -20 -27 0 -41 -304 -361 -407 -429 -15 -10 -55 -39 -88 -63 -91 -69 -294 -186 -321 -186 -6 0 -17 -7 -24 -15 -7 -8 -19 -15 -28 -15 -9 0 -34 -8 -56 -19 -23 -10 -75 -28 -116 -40 -41 -12 -97 -29 -125 -38 -47 -15 -134 -29 -325 -54 -149 -19 -444 1 -605 42 -22 6 -67 17 -101 24 -33 8 -74 21 -90 30 -16 8 -37 15 -47 15 -10 0 -35 9 -57 20 -22 11 -45 20 -52 21 -29 1 -296 147 -393 215 -132 92 -317 261 -329 300 -3 11 1 40 9 64 9 24 20 101 25 170 14 174 27 259 45 302 8 21 15 49 15 63 0 14 7 42 15 63 20 46 4 81 -58 129 -161 123 -255 236 -359 430 -21 40 -38 78 -38 85 0 7 -9 30 -20 51 -11 20 -20 43 -20 49 0 7 -7 27 -16 43 -9 17 -22 51 -30 77 -8 26 -19 50 -24 53 -6 3 -10 14 -10 23 0 10 -9 34 -20 55 -24 44 -26 97 -5 136 8 16 19 56 24 91 6 34 14 67 20 73 5 7 12 30 16 52 4 22 16 54 26 71 11 17 19 37 19 44 0 36 100 220 128 234 28 15 117 99 199 190 49 53 74 61 156 48 89 -14 115 -5 165 58 24 30 74 91 110 136 37 44 82 99 101 122 l34 42 45 -37 c54 -44 163 -55 212 -20 13 9 35 17 48 17 13 0 42 8 65 19 23 10 62 22 87 26 25 4 54 12 65 18 11 6 34 16 50 22 17 6 95 54 175 106 80 53 153 99 162 102 49 17 61 125 17 158 -54 40 5 47 256 29z m-491 -65 l59 -26 -27 -26 c-15 -14 -53 -39 -84 -55 -32 -17 -64 -37 -73 -44 -8 -8 -19 -14 -24 -14 -4 0 -26 -8 -49 -19 -23 -10 -63 -25 -91 -34 -27 -8 -74 -24 -104 -36 -63 -24 -67 -23 -81 30 -8 29 -21 46 -51 65 -52 32 -48 54 11 70 25 7 77 24 115 39 39 14 89 30 113 35 23 5 51 14 62 20 66 35 138 34 224 -5z m970 -34 c3 -5 18 -12 33 -15 46 -11 202 -87 242 -118 13 -10 30 -18 38 -18 16 0 116 -61 183 -112 27 -21 52 -38 55 -38 24 0 282 -247 360 -345 51 -64 120 -163 181 -260 30 -48 133 -257 144 -290 5 -16 15 -48 23 -70 23 -63 27 -308 6 -313 -11 -2 -21 8 -28 25 -15 34 -36 71 -81 143 -19 30 -40 64 -46 75 -23 42 -142 59 -212 29 -83 -34 -119 -114 -77 -170 20 -27 18 -98 -4 -142 -11 -20 -37 -73 -58 -117 -47 -96 -75 -115 -170 -115 l-62 0 -58 91 c-32 50 -107 165 -167 255 l-108 166 7 107 7 108 -34 32 c-39 36 -89 41 -185 16 -89 -23 -218 -20 -289 8 -109 42 -137 60 -288 193 -24 22 -69 20 -145 -6 -33 -11 -69 -20 -80 -20 -19 0 -31 -12 -137 -129 -96 -106 -103 -111 -143 -111 -66 0 -81 56 -40 151 l21 49 70 0 c97 0 134 33 124 113 -8 60 5 80 59 92 17 4 44 13 60 21 17 7 48 18 70 24 75 18 100 49 100 119 -1 48 -5 65 -23 84 -28 30 -28 57 1 82 172 150 212 172 249 138 23 -21 127 -63 156 -63 12 0 35 8 50 18 32 20 162 150 162 162 0 4 7 13 15 20 19 16 19 59 0 84 -19 25 -19 56 -1 56 8 0 17 -4 20 -9z m-1754 -221 c0 -5 -9 -19 -20 -30 -11 -11 -20 -22 -20 -25 0 -2 -30 -34 -66 -71 -36 -37 -77 -83 -92 -103 -15 -20 -30 -38 -33 -41 -3 -3 -11 -15 -18 -27 -13 -26 -84 -33 -123 -12 -25 14 21 64 178 194 134 111 194 146 194 115z m1116 -812 c17 -13 47 -40 66 -60 19 -21 42 -38 50 -38 8 0 23 -9 33 -20 10 -11 27 -20 37 -20 11 0 36 -9 56 -19 89 -46 111 -51 222 -51 60 0 130 5 155 12 44 12 64 5 65 -23 1 -36 -28 -44 -192 -50 -91 -3 -169 -9 -175 -12 -28 -17 -177 69 -206 119 -4 8 -14 14 -22 14 -8 0 -18 6 -22 14 -16 28 -124 69 -170 63 -79 -9 -95 28 -25 60 84 38 90 39 128 11z m-2032 -980 c14 -29 28 -66 32 -83 4 -16 11 -35 15 -41 5 -6 23 -37 40 -68 16 -32 45 -79 63 -105 19 -26 37 -57 40 -69 8 -24 112 -131 195 -201 l52 -43 -7 -57 c-3 -31 -13 -72 -22 -91 -10 -24 -17 -86 -21 -195 -6 -164 -9 -172 -47 -145 -31 22 -194 313 -194 346 0 12 -33 94 -54 134 -8 14 -17 41 -21 60 -4 19 -14 44 -21 55 -8 11 -14 30 -14 42 0 13 -9 49 -19 80 -11 32 -24 96 -30 143 -6 47 -16 101 -21 120 -17 58 -12 170 6 170 2 0 15 -24 28 -52z"/> <path d="M2408 4520 c-47 -48 -31 -91 22 -58 22 14 35 6 27 -17 -4 -9 -19 -15 -36 -15 -33 0 -71 -54 -51 -74 15 -15 12 -42 -5 -56 -38 -31 23 -40 92 -14 45 18 133 89 133 109 0 7 9 20 20 30 31 28 29 128 -2 123 -19 -2 -24 -11 -29 -46 -3 -24 -11 -47 -17 -51 -6 -3 -15 -19 -21 -34 -6 -15 -16 -27 -24 -27 -7 0 -20 -9 -30 -20 -19 -22 -71 -28 -65 -7 3 6 13 13 24 15 39 7 105 92 102 131 -4 50 -41 52 -46 4 -3 -26 -8 -33 -24 -33 -15 0 -18 4 -14 16 20 51 -16 67 -56 24z"/> <path d="M1884 4422 c-12 -26 -25 -65 -28 -86 -4 -21 -13 -48 -21 -60 -7 -12 -16 -47 -19 -79 -4 -32 -12 -71 -20 -85 -7 -15 -17 -58 -20 -97 -4 -38 -14 -92 -22 -120 -32 -108 -28 -892 5 -978 6 -15 14 -64 17 -110 4 -45 11 -93 17 -107 l9 -25 14 30 c7 17 13 57 14 90 0 33 7 105 15 160 13 82 14 127 5 250 -11 167 15 597 45 725 8 36 15 82 15 103 0 21 6 50 14 65 7 15 17 47 21 72 3 25 15 68 25 95 56 156 58 179 13 196 -54 20 -77 12 -99 -39z"/> <path d="M13151 4242 c-5 -10 -5 -240 -1 -532 4 -283 6 -518 3 -522 -11 -19 -34 -4 -71 46 -42 55 -130 137 -174 161 -173 97 -227 110 -463 110 -172 0 -205 -2 -232 -17 -18 -10 -41 -18 -53 -18 -19 0 -115 -42 -165 -72 -127 -77 -165 -109 -233 -192 -56 -69 -70 -89 -94 -136 -6 -14 -17 -32 -23 -40 -7 -8 -19 -35 -27 -60 -9 -25 -20 -58 -26 -75 -39 -112 -58 -401 -31 -472 6 -15 15 -54 20 -86 5 -33 16 -69 23 -80 8 -12 17 -37 21 -54 4 -18 11 -35 16 -39 5 -3 16 -20 24 -37 39 -82 57 -106 151 -201 97 -99 124 -116 315 -205 25 -11 62 -21 81 -21 20 0 55 -7 78 -15 57 -20 279 -21 341 -1 24 8 65 17 91 21 26 3 50 10 53 15 3 5 22 14 41 20 20 7 53 23 73 36 20 14 45 30 56 37 32 19 165 157 165 171 0 23 59 50 67 31 6 -16 -11 -223 -23 -277 -9 -42 24 -56 135 -59 110 -3 140 15 125 76 -12 48 -16 2245 -5 2360 14 137 11 140 -139 142 -94 1 -111 -1 -119 -15z m-544 -956 c21 -8 55 -17 75 -21 77 -12 195 -80 279 -160 40 -38 109 -134 109 -152 0 -6 7 -16 15 -23 8 -7 17 -28 21 -49 4 -20 14 -49 23 -66 29 -54 23 -392 -8 -470 -58 -144 -65 -156 -163 -253 -80 -81 -104 -102 -117 -102 -4 0 -19 -8 -32 -19 -13 -10 -40 -22 -59 -26 -19 -4 -46 -15 -59 -24 -37 -24 -385 -24 -421 0 -14 9 -38 19 -54 23 -45 11 -156 79 -202 124 -50 48 -142 183 -150 220 -4 15 -12 37 -20 48 -7 12 -20 79 -28 150 -29 250 27 449 169 599 55 57 154 135 173 135 4 0 23 8 42 19 19 10 58 23 85 29 28 6 61 15 75 21 39 15 204 13 247 -3z"/> <path d="M17923 4245 c-19 -14 -21 -411 -2 -824 6 -128 8 -235 5 -238 -12 -13 -48 13 -86 63 -76 98 -259 224 -325 224 -9 0 -30 8 -48 17 -54 29 -391 32 -474 4 -34 -12 -68 -21 -74 -21 -14 0 -108 -42 -179 -80 -96 -51 -266 -228 -308 -320 -9 -19 -21 -42 -28 -50 -14 -19 -42 -100 -55 -160 -6 -25 -17 -71 -25 -102 -18 -74 -18 -231 0 -311 8 -34 19 -84 24 -112 12 -60 41 -144 56 -165 6 -8 25 -41 41 -74 64 -125 331 -356 412 -356 7 0 30 -9 50 -20 21 -11 52 -20 69 -20 17 0 51 -7 74 -15 51 -18 293 -21 337 -4 15 6 51 14 78 19 45 8 106 32 190 77 54 29 120 87 194 171 106 119 118 95 79 -156 -16 -104 -7 -112 121 -112 53 0 102 4 109 9 22 14 19 2541 -3 2557 -21 16 -210 15 -232 -1z m-513 -969 c199 -50 346 -164 439 -341 12 -22 21 -46 21 -53 0 -7 7 -26 15 -41 40 -79 40 -436 0 -494 -8 -12 -15 -28 -15 -37 0 -36 -90 -178 -147 -231 -63 -59 -170 -129 -196 -129 -7 0 -31 -10 -52 -22 -48 -27 -407 -35 -437 -10 -9 7 -38 19 -66 27 -27 8 -55 22 -62 30 -7 8 -16 15 -21 15 -22 0 -113 78 -160 137 -128 160 -173 331 -150 568 6 64 18 126 25 138 7 12 16 37 20 55 3 19 15 45 26 59 11 14 20 30 20 35 0 11 67 94 109 136 63 63 225 151 283 153 13 0 39 7 58 14 57 22 183 18 290 -9z"/> <path d="M7064 4101 c-2 -2 -4 -545 -4 -1206 0 -1257 0 -1245 39 -1221 5 4 55 7 110 7 124 0 126 2 122 112 -14 453 -17 634 -10 647 6 13 63 15 406 17 219 1 409 3 422 5 17 2 29 -4 40 -23 9 -14 32 -48 51 -76 19 -28 53 -77 75 -109 21 -33 42 -61 45 -64 3 -3 13 -16 22 -30 10 -14 35 -50 57 -80 23 -30 57 -80 78 -110 20 -30 43 -59 50 -63 7 -4 13 -14 13 -21 0 -7 9 -21 20 -31 11 -10 20 -22 20 -28 0 -5 10 -22 23 -37 12 -15 29 -37 37 -50 8 -12 20 -29 26 -38 11 -15 251 -39 282 -27 27 10 12 60 -33 104 -25 25 -45 48 -45 52 0 6 -33 51 -104 144 -68 88 -136 181 -193 265 -21 30 -44 62 -51 70 -146 170 -167 221 -96 235 20 3 53 15 73 26 20 10 39 19 43 19 12 0 120 77 153 108 57 56 95 99 95 110 0 6 6 15 13 19 13 8 32 45 77 148 11 28 25 82 30 120 5 39 12 92 16 118 14 99 -40 388 -83 438 -7 8 -13 20 -13 25 0 58 -238 280 -332 310 -13 4 -39 15 -58 25 -19 11 -44 19 -55 19 -11 0 -30 6 -41 14 -11 8 -42 17 -69 21 -28 3 -79 12 -115 20 -61 14 -1123 28 -1136 16z m1091 -241 c80 -10 196 -41 216 -57 8 -6 25 -14 37 -18 59 -18 198 -142 223 -198 5 -12 13 -29 18 -37 74 -117 70 -466 -6 -562 -6 -7 -18 -27 -27 -45 -21 -41 -108 -128 -149 -149 -18 -9 -38 -21 -45 -27 -21 -17 -123 -56 -162 -63 -19 -3 -64 -12 -100 -19 -65 -14 -824 -25 -836 -12 -10 10 -5 1190 5 1196 14 9 746 1 826 -9z"/> <path d="M14203 4103 c-8 -3 -8 -2402 0 -2409 2 -3 377 -6 833 -8 456 -2 838 -4 848 -5 33 -3 39 15 41 115 2 118 -5 129 -79 120 -55 -6 -1376 -10 -1382 -4 -2 2 -4 201 -4 443 -1 500 -7 470 81 456 47 -8 423 -13 1064 -16 l110 0 5 105 c3 64 1 110 -5 119 -8 12 -105 13 -628 9 -364 -4 -619 -2 -623 3 -8 13 -6 828 2 841 4 7 33 8 78 4 39 -3 352 -6 696 -7 l625 -2 0 118 0 118 -827 1 c-456 1 -831 0 -835 -1z"/> <path d="M10060 3490 c-30 -11 -61 -20 -70 -20 -8 0 -32 -9 -53 -20 -20 -11 -42 -20 -49 -20 -13 0 -134 -79 -196 -129 -39 -31 -93 -93 -132 -151 -8 -12 -22 -32 -31 -44 -17 -23 -69 -130 -69 -143 0 -4 -9 -30 -19 -58 -34 -90 -55 -233 -48 -341 9 -155 57 -355 94 -392 7 -7 13 -18 13 -24 0 -69 301 -368 370 -368 7 0 21 -7 31 -16 10 -9 32 -20 51 -24 18 -5 53 -15 78 -24 183 -61 570 -55 665 10 11 8 25 14 33 14 15 0 125 52 163 78 14 9 40 26 57 38 38 25 122 102 122 112 0 4 -23 32 -51 62 -28 30 -58 65 -66 78 -20 29 -35 28 -73 -8 -58 -54 -128 -110 -138 -110 -5 0 -20 -8 -33 -19 -13 -10 -40 -22 -59 -26 -19 -4 -46 -14 -60 -23 -47 -31 -407 -24 -490 10 -153 61 -261 140 -339 247 -70 95 -139 300 -110 325 11 9 199 10 749 6 404 -3 743 -3 752 -1 33 6 40 61 23 162 -9 52 -21 122 -25 156 -5 34 -16 76 -25 92 -8 17 -15 35 -15 41 0 15 -49 120 -69 146 -9 12 -23 32 -31 44 -42 64 -106 133 -165 180 -68 54 -226 140 -258 140 -10 0 -32 8 -50 17 -52 29 -402 31 -477 3z m373 -203 c18 -8 49 -17 69 -21 120 -22 329 -204 363 -317 4 -13 13 -31 20 -39 7 -8 16 -31 20 -50 3 -19 13 -54 22 -76 31 -85 89 -77 -637 -77 l-645 0 1 29 c2 47 22 132 38 156 8 13 17 34 21 47 8 28 62 107 108 161 65 76 172 140 297 179 80 24 272 29 323 8z"/> <path d="M19440 3500 c-116 -28 -159 -43 -255 -92 -37 -19 -114 -67 -125 -78 -3 -3 -22 -17 -42 -33 -84 -63 -195 -223 -239 -347 -38 -106 -42 -135 -42 -305 1 -196 19 -291 77 -400 9 -16 16 -35 16 -41 0 -7 7 -14 15 -18 8 -3 15 -11 15 -19 0 -44 223 -267 267 -267 8 0 16 -7 19 -15 4 -8 11 -15 18 -15 6 0 32 -11 58 -25 26 -14 55 -25 65 -25 10 0 28 -7 40 -15 12 -8 52 -19 90 -25 37 -5 84 -14 103 -20 50 -14 185 -12 255 5 33 8 75 15 93 15 56 0 193 61 282 124 54 39 150 133 150 147 0 16 31 38 45 33 28 -11 9 -416 -20 -461 -8 -12 -15 -30 -15 -39 0 -36 -58 -131 -115 -189 -118 -120 -228 -156 -494 -162 -121 -3 -194 0 -215 7 -17 6 -55 15 -85 20 -60 10 -135 37 -226 82 -88 43 -97 49 -141 90 -53 51 -75 49 -113 -9 -16 -27 -37 -55 -46 -64 -26 -27 -39 -77 -24 -95 28 -35 260 -164 293 -164 8 0 27 -6 43 -14 27 -15 113 -38 203 -56 241 -48 690 -15 771 56 8 8 22 14 31 14 8 0 27 9 41 20 14 11 29 20 35 20 5 0 20 10 34 23 14 12 40 36 59 52 124 112 210 292 229 485 5 52 10 417 10 811 0 407 5 772 10 845 13 159 17 154 -125 154 -139 0 -138 2 -120 -130 31 -224 19 -250 -65 -149 -48 58 -159 159 -175 159 -4 0 -18 9 -32 20 -14 11 -33 20 -41 20 -9 0 -23 6 -31 14 -14 12 -41 21 -171 56 -42 11 -361 11 -410 0z m345 -210 c110 -26 153 -38 187 -53 21 -9 40 -17 42 -17 16 0 136 -91 170 -129 23 -25 49 -53 59 -63 9 -10 17 -21 17 -26 0 -4 8 -19 17 -32 98 -138 108 -450 21 -627 -41 -86 -143 -205 -203 -238 -16 -9 -48 -27 -70 -40 -166 -101 -520 -113 -665 -24 -8 5 -32 16 -52 25 -21 9 -38 20 -38 24 0 5 -8 11 -18 14 -38 12 -161 146 -190 206 -7 14 -16 32 -20 40 -55 95 -80 391 -39 467 9 18 17 41 17 51 0 92 207 322 321 357 13 4 30 12 37 17 6 6 40 17 75 25 34 8 76 18 92 23 41 11 191 11 240 0z"/> <path d="M21845 3494 c-22 -8 -56 -19 -75 -23 -20 -4 -60 -20 -90 -34 -143 -71 -232 -141 -319 -252 -54 -69 -101 -147 -101 -168 0 -8 -7 -20 -15 -27 -8 -7 -17 -28 -21 -49 -4 -20 -13 -49 -21 -64 -40 -79 -39 -478 1 -555 9 -17 16 -40 16 -50 0 -58 130 -261 227 -353 51 -50 177 -139 195 -139 6 0 19 -6 27 -13 20 -17 100 -45 166 -59 28 -6 71 -16 97 -24 64 -19 295 -19 368 1 30 8 69 15 85 15 17 0 48 9 70 20 22 11 46 19 54 20 7 0 28 8 45 19 17 10 42 22 56 26 30 9 79 45 162 117 24 21 46 38 51 38 4 0 7 12 7 28 -1 65 -157 188 -176 138 -7 -19 -142 -126 -159 -126 -7 0 -18 -6 -24 -14 -7 -8 -28 -17 -48 -21 -20 -3 -47 -14 -60 -22 -58 -38 -381 -28 -504 15 -146 52 -314 189 -358 292 -6 14 -15 32 -20 40 -28 48 -55 141 -56 190 l0 55 70 -1 c538 -4 1437 -4 1445 1 18 11 12 191 -11 289 -32 138 -83 267 -125 317 -8 8 -14 20 -14 26 0 41 -283 283 -331 283 -8 0 -27 9 -44 20 -16 11 -40 20 -53 20 -13 0 -37 8 -55 17 -46 26 -402 31 -462 7z m391 -215 c249 -73 414 -251 465 -502 6 -27 9 -53 7 -59 -3 -8 -200 -11 -643 -11 l-640 -1 -3 48 c-2 32 3 61 17 90 12 23 21 47 21 52 0 70 206 303 290 329 14 4 30 12 37 17 68 54 321 75 449 37z"/> <path d="M8014 1510 c-29 -11 -36 -34 -28 -91 7 -54 7 -55 -54 -34 -49 17 -107 11 -116 -11 -3 -8 -12 -14 -20 -14 -19 0 -66 -57 -66 -80 0 -10 -4 -22 -10 -25 -5 -3 -10 -19 -10 -35 0 -16 5 -32 10 -35 6 -3 10 -19 10 -35 0 -16 6 -34 13 -40 6 -6 25 -22 40 -36 28 -24 32 -25 153 -21 69 2 127 7 130 10 11 11 13 431 2 445 -12 14 -24 14 -54 2z m-79 -204 c96 -34 63 -186 -40 -186 -104 0 -144 139 -51 180 51 23 43 22 91 6z"/> <path d="M11574 1506 c-16 -12 -19 -26 -18 -80 l0 -65 -30 16 c-52 27 -114 21 -169 -16 -62 -42 -71 -62 -71 -146 1 -82 5 -92 58 -134 l39 -31 116 3 c64 2 122 6 128 10 16 10 16 426 1 444 -14 17 -30 16 -54 -1z m-75 -199 c100 -42 65 -189 -45 -189 -57 0 -93 37 -93 98 -1 58 13 76 69 92 19 6 36 11 36 11 1 1 16 -5 33 -12z"/> <path d="M15732 1497 c-7 -8 -13 -93 -16 -214 -5 -223 -2 -237 49 -231 l30 3 3 205 c1 113 0 215 -3 228 -6 25 -45 31 -63 9z"/> <path d="M17152 1498 c-32 -32 -6 -78 45 -78 37 0 53 32 33 69 -12 24 -58 29 -78 9z"/> <path d="M13971 1464 c-16 -13 -33 -39 -37 -57 -3 -17 -15 -43 -25 -56 -11 -13 -19 -34 -19 -48 0 -13 -7 -26 -15 -29 -8 -3 -17 -22 -21 -41 -4 -19 -12 -37 -20 -40 -7 -2 -16 -19 -20 -36 -3 -17 -15 -38 -26 -47 -30 -24 -16 -60 22 -60 45 0 59 10 66 46 7 40 24 47 122 46 136 0 130 2 138 -37 7 -40 32 -58 72 -53 35 4 42 42 13 69 -12 11 -21 28 -21 38 0 10 -8 29 -19 42 -10 13 -22 35 -26 49 -4 14 -13 32 -20 40 -7 8 -18 32 -25 53 -6 20 -15 37 -20 37 -5 0 -12 15 -16 34 -11 64 -60 87 -103 50z m55 -116 c54 -95 51 -112 -20 -116 l-59 -3 7 32 c3 18 13 40 21 49 8 9 15 26 15 37 0 39 14 40 36 1z"/> <path d="M7226 1464 c-9 -8 -16 -21 -16 -28 0 -8 -7 -19 -15 -26 -8 -7 -17 -27 -21 -45 -3 -19 -15 -41 -25 -51 -10 -9 -19 -27 -19 -39 0 -11 -5 -26 -11 -32 -5 -5 -19 -25 -29 -44 -62 -110 -64 -142 -12 -147 24 -2 34 2 40 15 4 10 16 32 26 48 l19 30 100 0 101 -1 29 -47 c21 -34 35 -47 52 -47 57 0 54 52 -10 149 -19 29 -35 58 -35 64 0 7 -23 58 -51 115 -56 109 -82 128 -123 86z m71 -149 c7 -21 18 -42 24 -46 6 -3 9 -15 7 -25 -3 -16 -12 -19 -62 -18 -71 2 -83 12 -56 46 11 15 23 40 26 58 10 45 43 38 61 -15z"/> <path d="M12496 1446 c-8 -18 -19 -37 -25 -40 -6 -4 -11 -15 -11 -25 0 -9 -11 -32 -25 -51 -14 -19 -25 -43 -25 -55 0 -12 -5 -26 -11 -32 -5 -5 -19 -25 -29 -44 -57 -102 -62 -136 -22 -150 25 -9 37 0 76 61 l22 35 99 -1 c88 0 101 -3 110 -20 30 -56 48 -74 76 -74 36 0 41 51 10 91 -10 13 -22 35 -26 49 -4 14 -13 32 -20 40 -7 8 -16 26 -20 40 -4 14 -13 32 -20 40 -7 8 -16 30 -20 48 -4 18 -13 36 -21 39 -8 3 -14 14 -14 24 0 59 -81 79 -104 25z m57 -93 c8 -10 18 -30 22 -45 4 -15 13 -32 21 -39 30 -24 15 -37 -47 -41 -76 -4 -83 4 -53 60 13 25 24 53 24 63 0 24 12 24 33 2z"/> <path d="M13024 1468 c-9 -14 -15 -371 -7 -400 5 -22 75 -25 90 -5 10 13 8 390 -2 407 -9 14 -72 12 -81 -2z"/> <path d="M16690 1420 c-6 -12 -22 -25 -36 -30 -37 -14 -34 -64 6 -85 l30 -15 -3 -88 c-5 -132 9 -152 113 -152 63 0 86 15 75 49 -5 16 -16 21 -58 23 l-52 3 -3 88 -3 87 34 0 c52 0 85 48 55 78 -7 7 -29 12 -49 12 -31 0 -38 4 -43 25 -8 32 -50 35 -66 5z"/> <path d="M8348 1389 c-25 -14 -24 -71 2 -94 11 -10 20 -24 20 -31 0 -7 11 -33 23 -57 13 -24 27 -53 30 -63 4 -11 10 -26 15 -34 5 -8 13 -24 19 -35 18 -35 91 -34 99 2 4 15 12 35 19 43 7 8 16 26 20 40 4 14 13 32 20 40 7 8 16 26 20 40 4 14 16 36 26 49 31 39 23 101 -13 101 -24 0 -65 -46 -73 -82 -3 -14 -15 -43 -26 -64 -10 -21 -19 -44 -19 -51 0 -40 -45 -18 -55 27 -3 16 -13 34 -21 41 -8 6 -14 23 -14 38 0 20 -60 103 -73 101 -1 0 -10 -5 -19 -11z"/> <path d="M9005 1393 c-11 -3 -27 -11 -35 -18 -8 -6 -23 -15 -32 -18 -25 -9 -23 -44 3 -57 16 -9 32 -8 69 6 47 17 50 17 85 -2 58 -31 42 -47 -57 -59 -107 -13 -138 -35 -138 -99 1 -80 34 -97 176 -94 l119 4 3 135 3 135 -40 32 c-39 31 -110 48 -156 35z m125 -224 c0 -19 -51 -61 -67 -55 -8 3 -28 6 -44 6 -28 0 -42 33 -22 53 12 12 133 8 133 -4z"/> <path d="M9620 1378 c-16 -17 -23 -19 -32 -10 -18 18 -66 15 -77 -6 -11 -21 -17 -284 -7 -301 10 -15 73 -14 83 2 4 6 8 58 8 114 0 117 3 121 72 129 75 9 93 -18 93 -141 0 -100 9 -119 52 -113 22 3 23 6 26 122 3 134 -1 147 -70 196 -52 38 -116 42 -148 8z"/> <path d="M10267 1393 c-22 -6 -71 -38 -109 -72 -26 -23 -28 -31 -28 -97 0 -91 3 -98 58 -140 62 -47 196 -52 231 -8 48 61 2 111 -59 65 -85 -62 -200 38 -144 125 30 45 74 56 134 33 58 -22 90 -13 90 24 -1 43 -112 88 -173 70z"/> <path d="M10820 1391 c-140 -35 -186 -209 -80 -305 39 -35 42 -36 125 -36 74 0 87 3 105 22 42 45 5 103 -40 63 -28 -25 -101 -22 -139 6 -47 35 -40 38 91 41 119 3 123 4 137 28 43 78 -99 207 -199 181z m81 -87 c21 -11 29 -21 27 -36 -5 -30 -158 -38 -158 -7 0 44 80 70 131 43z"/> <path d="M14621 1388 c-17 -5 -31 -13 -31 -18 0 -16 -32 -11 -53 7 -38 35 -48 -3 -45 -172 l3 -150 27 -3 c40 -5 52 26 44 109 -11 112 48 177 128 144 44 -19 49 -37 41 -141 -8 -94 0 -114 44 -114 49 0 53 9 48 116 -2 55 -10 116 -18 136 -27 66 -112 105 -188 86z"/> <path d="M17627 1380 c-14 -11 -29 -20 -34 -20 -21 0 -62 -58 -73 -102 -15 -60 6 -129 52 -173 50 -47 193 -51 238 -7 36 36 38 59 7 73 -25 11 -77 -3 -77 -21 0 -24 -86 -11 -113 18 -39 41 -39 114 0 139 34 22 107 22 151 0 32 -15 33 -15 48 9 18 27 13 51 -13 61 -10 3 -29 15 -42 25 -33 25 -110 24 -144 -2z"/> <path d="M18170 1393 c-86 -36 -118 -146 -53 -178 12 -6 27 -16 34 -22 8 -6 37 -14 64 -18 52 -8 67 -19 58 -42 -7 -18 -98 -17 -127 2 -53 35 -101 -20 -56 -65 36 -36 202 -29 241 9 58 58 30 142 -51 157 -108 20 -150 53 -93 75 20 8 38 7 63 -1 81 -27 129 10 76 59 -25 23 -122 39 -156 24z"/> <path d="M15162 1362 c-61 -51 -31 -83 54 -56 65 20 109 6 109 -37 0 -21 -5 -23 -71 -25 -89 -2 -108 -8 -122 -39 -6 -14 -16 -25 -22 -25 -30 0 11 -95 52 -122 16 -10 217 -7 239 3 22 11 23 154 2 231 -21 76 -53 98 -144 98 -55 0 -69 -4 -97 -28z m172 -191 c3 -4 -2 -17 -12 -28 -45 -52 -147 -34 -126 22 7 17 128 22 138 6z"/> <path d="M16060 1351 c0 -22 6 -44 15 -51 8 -7 15 -18 15 -25 0 -7 9 -23 19 -37 11 -13 23 -38 27 -54 4 -16 15 -37 25 -47 25 -23 25 -87 1 -118 -19 -22 -29 -22 -65 3 -24 17 -49 -15 -45 -57 3 -29 5 -30 60 -33 32 -2 66 2 77 7 24 13 78 92 87 126 3 13 12 29 19 35 8 6 17 24 20 40 3 16 13 34 20 40 8 7 17 27 21 45 3 19 12 36 19 39 14 5 39 102 29 117 -3 5 -17 9 -32 9 -23 -1 -31 -10 -56 -63 -16 -34 -33 -69 -37 -77 -13 -22 -17 -31 -24 -64 l-6 -29 -24 23 c-12 12 -26 37 -29 55 -4 18 -13 38 -20 44 -8 7 -17 27 -20 46 -14 70 -96 93 -96 26z"/> <path d="M17156 1358 c-13 -18 -16 -52 -16 -160 l0 -137 35 -7 c64 -12 65 -10 65 146 0 78 -5 150 -10 161 -14 26 -55 24 -74 -3z"/> </g> </svg>